<svg xmlns="http://www.w3.org/2000/svg" width="90" height="24" viewBox="0 0 90 24" fill="none">
  <g clip-path="url(#clip0_1_817)">
    <mask id="mask0_1_817" style="mask-type:luminance" maskUnits="userSpaceOnUse" x="-1" y="0" width="91" height="24">
      <path d="M89.9772 0H-0.000274658V23.994H89.9772V0Z" fill="white"/>
    </mask>
    <g mask="url(#mask0_1_817)">
      <mask id="mask1_1_817" style="mask-type:luminance" maskUnits="userSpaceOnUse" x="-1" y="0" width="91" height="24">
        <path d="M89.9772 0H-0.000274658V23.994H89.9772V0Z" fill="white"/>
      </mask>
      <g mask="url(#mask1_1_817)">
        <mask id="mask2_1_817" style="mask-type:luminance" maskUnits="userSpaceOnUse" x="-1" y="0" width="91" height="24">
          <path d="M89.9772 0H-0.000274658V23.994H89.9772V0Z" fill="white"/>
        </mask>
        <g mask="url(#mask2_1_817)">
          <path d="M23.5844 12.0387C23.4282 11.7325 23.0219 11.4875 22.7093 11.4875H22.0215C21.6777 11.4875 21.3026 11.7325 21.1463 12.0387L15.6761 23.1823C15.5198 23.4884 15.6761 23.6721 16.0199 23.6721H17.2703C17.7704 23.6721 17.9892 23.4578 18.1143 23.1823C18.2392 22.9067 18.5518 22.325 18.6144 22.2026C18.6769 22.0496 18.927 21.9271 19.2708 21.9271H25.1162C25.46 21.9271 25.6788 21.9883 25.7725 22.172C25.8351 22.2944 26.1477 22.8149 26.2727 23.121C26.429 23.3966 26.6791 23.6415 27.1479 23.6415H28.961C29.3048 23.6415 29.4298 23.3966 29.336 23.1516C29.2423 22.968 23.5844 12.0387 23.5844 12.0387ZM20.146 20.2127C19.8022 20.2127 19.6459 19.9678 19.8022 19.6616L21.959 15.1613C22.1153 14.8552 22.3341 14.8552 22.4592 15.1613L24.5535 19.6616C24.6785 19.9678 24.5222 20.2127 24.2096 20.2127H20.146ZM65.5647 12.1305C65.5647 12.253 65.5647 22.9373 65.5647 23.1516C65.5647 23.4578 65.846 23.6721 66.1898 23.6721H67.6903C68.0341 23.6721 68.3155 23.4578 68.3155 23.121V12.0998C68.3155 11.7631 68.0966 11.4875 67.7528 11.4875H66.2211C65.846 11.5182 65.5647 11.7019 65.5647 12.1305ZM40.6829 19.0493C40.4953 18.7738 40.5891 18.4676 40.9329 18.3758C40.9329 18.3758 42.2146 18.0084 42.8397 17.4574C43.4649 16.9063 43.7775 16.141 43.7775 15.1307C43.7775 14.4572 43.6524 13.9061 43.4336 13.4469C43.1836 12.9877 42.871 12.6203 42.4021 12.3448C41.9645 12.0693 41.4331 11.855 40.8079 11.7325C40.1827 11.6101 39.37 11.5488 39.37 11.5488C39.0262 11.5488 38.4948 11.5182 38.151 11.5182H31.993C31.6492 11.5182 31.3679 11.7937 31.3679 12.1305V23.1516C31.3679 23.4884 31.6492 23.7027 31.993 23.7027H33.4622C33.806 23.7027 34.0874 23.4884 34.0874 23.1516V18.7738H36.8693C37.2132 18.7738 37.6508 18.9881 37.8384 19.2636L40.7141 23.2129C40.9955 23.5496 41.2455 23.7027 41.5581 23.7027H43.4649C43.8088 23.7027 43.84 23.3966 43.7462 23.2435C43.5587 23.0292 40.6829 19.0493 40.6829 19.0493ZM39.5263 16.8145C39.1512 16.9063 38.7136 16.9063 38.7136 16.9063C38.3698 16.9063 37.8384 16.937 37.4945 16.937H34.65C34.3062 16.937 34.0248 16.6614 34.0248 16.3247V14.0898C34.0248 13.753 34.3062 13.4776 34.65 13.4776H37.4945C37.8384 13.4776 38.3698 13.4776 38.7136 13.5081C38.7136 13.5081 39.1512 13.5387 39.5263 13.6C39.9014 13.6918 40.214 13.8143 40.4328 13.9673C40.6517 14.1204 40.8079 14.3041 40.9017 14.5184C40.9955 14.7327 41.058 14.947 41.058 15.1919C41.058 15.4368 40.9955 15.6818 40.9017 15.8654C40.8079 16.0797 40.6517 16.2634 40.4328 16.4165C40.1827 16.6001 39.9014 16.7227 39.5263 16.8145ZM83.7882 11.5182C83.4447 11.5182 83.1943 11.7325 83.1943 12.0387C83.1943 12.1917 83.1943 19.0799 83.1943 19.0799C83.1943 19.4167 83.0069 19.4779 82.7572 19.233L75.5365 11.9162C75.3175 11.6713 74.9735 11.4875 74.5046 11.4875H73.1605C72.7229 11.4875 72.5353 11.7019 72.5353 11.9468C72.5353 12.1611 72.5353 22.9986 72.5353 23.2129C72.5353 23.4272 72.7541 23.6415 73.098 23.6415H74.4421C74.786 23.6415 75.0048 23.4578 75.0048 23.1516C75.0048 22.9986 75.0048 15.7124 75.0048 15.7124C75.0048 15.3756 75.1923 15.3144 75.4427 15.5593L82.9754 23.2129C83.2258 23.4578 83.507 23.6415 84.0071 23.6415H85.0388C85.3823 23.6415 85.6642 23.3659 85.6642 23.0292V12.0998C85.6642 11.7631 85.3823 11.4875 85.0388 11.4875H83.7882V11.5182ZM54.4054 18.3758C54.2491 18.6513 53.9677 18.6513 53.8115 18.3758L50.2793 12.0387C50.123 11.7325 49.8104 11.4875 49.404 11.4875H47.4972C47.1534 11.4875 46.8721 11.7631 46.8721 12.0998V23.121C46.8721 23.4578 47.0909 23.6721 47.4972 23.6721H48.6851C49.0289 23.6721 49.279 23.4578 49.279 23.1516C49.279 22.9986 49.279 15.1307 49.3103 15.1307L53.7177 23.1516C53.874 23.4272 54.2803 23.4578 54.4367 23.1516C54.4367 23.1516 58.8441 15.1613 58.8753 15.1613C58.8753 15.1613 58.8753 22.9067 58.8753 23.1516C58.8753 23.4578 59.1254 23.6721 59.4693 23.6721H60.8446C61.1885 23.6721 61.4698 23.519 61.4698 23.0598V12.0998C61.4698 11.7631 61.1885 11.4875 60.8446 11.4875H59.0004C58.5315 11.4875 58.2502 11.7325 58.0939 12.008L54.4054 18.3758Z" fill="white"/>
          <path d="M-0.000167847 17.6409C-0.000167847 23.544 6.20619 23.8483 7.46 23.8483C11.5976 23.8483 13.3215 22.7529 13.4156 22.7224C13.6664 22.5703 13.9798 22.2964 13.9798 21.7487V17.6713C13.9798 17.3062 13.6664 17.0019 13.2902 17.0019H8.08694C7.71075 17.0019 7.46 17.3062 7.46 17.6713V18.0973C7.46 18.4625 7.71075 18.7668 8.08694 18.7668H11.0961C11.3782 18.7668 11.6289 19.0102 11.6289 19.284C11.6289 19.284 11.6289 21.0793 11.6289 21.1706C11.0333 21.414 8.33767 22.1747 6.17485 21.6575C3.00897 20.9576 2.75821 18.4321 2.75821 17.6713C2.75821 17.0323 2.94629 13.8678 6.83309 13.5331C9.96762 13.2593 12.0051 14.5068 12.0364 14.5068C12.4125 14.6894 12.7887 14.5677 12.9768 14.1721L13.3529 13.4114C13.5097 13.1071 13.447 12.7724 13.0708 12.4986C13.0394 12.4986 10.8453 11.3423 7.46 11.3423C0.187903 11.3727 -0.000167847 17.0019 -0.000167847 17.6409Z" fill="white"/>
          <path fill-rule="evenodd" clip-rule="evenodd" d="M83.0315 8.54123H74.9354C74.624 8.54123 74.3749 8.38835 74.2504 8.14361C74.0946 7.89895 74.0946 7.59302 74.2504 7.3483L78.2987 0.466003C78.4539 0.221299 78.7028 0.0683594 78.9833 0.0683594C79.2952 0.0683594 79.5441 0.221299 79.6686 0.466003L83.7168 7.3483C83.872 7.59302 83.872 7.89895 83.7168 8.14361C83.5924 8.41894 83.3427 8.54123 83.0315 8.54123Z" fill="white"/>
          <path d="M88.5645 21.2307C89.3496 21.2307 89.9771 21.8447 89.9771 22.6122C89.9771 23.3797 89.3496 23.9936 88.5645 23.9936C87.7794 23.9936 87.1511 23.3797 87.1511 22.6122C87.1511 21.8754 87.7794 21.2307 88.5645 21.2307ZM88.5645 23.8095C89.2236 23.8095 89.726 23.2876 89.726 22.6122C89.726 21.9368 89.2236 21.4149 88.5645 21.4149C87.9047 21.4149 87.4023 21.9368 87.4023 22.6122C87.4023 23.2876 87.9047 23.8095 88.5645 23.8095ZM88.0306 21.814H88.6582C89.0354 21.814 89.2236 21.9675 89.2236 22.2745C89.2236 22.5508 89.0669 22.735 88.7842 22.735L89.2866 23.4411H89.0039L88.533 22.735H88.3133V23.4411H88.0306V21.814ZM88.3133 22.5201H88.6267C88.8472 22.5201 88.9724 22.4893 88.9724 22.2745C88.9724 22.0903 88.8157 22.0289 88.6267 22.0289H88.3133V22.5201Z" fill="white"/>
        </g>
      </g>
    </g>
  </g>
  <defs>
    <clipPath id="clip0_1_817">
      <rect width="89.9775" height="23.994" fill="white"/>
    </clipPath>
  </defs>
</svg>