<svg xmlns="http://www.w3.org/2000/svg" width="90" height="15" viewBox="0 0 90 15" fill="none">
  <g clip-path="url(#clip0_1_836)">
    <mask id="mask0_1_836" style="mask-type:luminance" maskUnits="userSpaceOnUse" x="0" y="0" width="90" height="15">
      <path d="M89.964 0H-3.05176e-05V14.994H89.964V0Z" fill="white"/>
    </mask>
    <g mask="url(#mask0_1_836)">
      <mask id="mask1_1_836" style="mask-type:luminance" maskUnits="userSpaceOnUse" x="0" y="0" width="90" height="15">
        <path d="M89.964 0H-3.05176e-05V14.994H89.964V0Z" fill="white"/>
      </mask>
      <g mask="url(#mask1_1_836)">
        <mask id="mask2_1_836" style="mask-type:luminance" maskUnits="userSpaceOnUse" x="0" y="0" width="90" height="15">
          <path d="M89.964 0H-3.05176e-05V14.994H89.964V0Z" fill="white"/>
        </mask>
        <g mask="url(#mask2_1_836)">
          <path d="M89.158 12.2841C89.1392 11.8787 88.8139 11.8059 88.4825 11.8059C88.2036 11.8059 87.927 11.8059 87.6496 11.8059C87.6496 12.4447 87.6496 13.0838 87.6496 13.7231C87.7275 13.7231 87.8063 13.7231 87.8835 13.7231C87.8835 13.4289 87.8835 13.1344 87.8835 12.8394C88.0267 12.8394 88.1699 12.8394 88.3123 12.8394C88.4937 13.1344 88.6744 13.4289 88.8558 13.7231C88.9495 13.7231 89.0425 13.7231 89.1355 13.7231C88.9435 13.4277 88.7524 13.1323 88.5597 12.8369C88.9226 12.8208 89.176 12.6929 89.158 12.2841ZM87.8835 12.6528C87.8835 12.4256 87.8835 12.1981 87.8835 11.9718C88.0664 11.9718 88.2478 11.9718 88.4285 11.9718C88.6609 11.9718 88.9046 12.0185 88.9046 12.3131C88.9046 12.6073 88.6609 12.6528 88.4285 12.6528C88.2478 12.6528 88.0664 12.6528 87.8835 12.6528Z" fill="white"/>
          <path d="M88.2544 10.9988C87.3091 10.9988 86.5429 11.7666 86.5429 12.715C86.5429 13.6625 87.3091 14.4296 88.2544 14.4296C89.1991 14.4296 89.9638 13.6625 89.9638 12.715C89.9638 11.7666 89.1991 10.9988 88.2544 10.9988ZM88.2544 14.2036C87.438 14.2036 86.8188 13.5139 86.8188 12.715C86.8188 11.9145 87.438 11.2247 88.2544 11.2247C89.0686 11.2247 89.6879 11.9149 89.6879 12.715C89.6879 13.5139 89.0686 14.2036 88.2544 14.2036Z" fill="white"/>
          <path d="M34.1915 6.45776C34.5385 10.8884 30.897 14.794 26.4862 14.9301C21.8248 15.0745 18.4516 11.0112 19.3725 6.45776C24.3129 6.45776 29.252 6.45776 34.1915 6.45776Z" fill="white"/>
          <path d="M33.7112 4.43984C32.6269 1.6151 29.9412 -0.0752286 26.9992 0.00257447C24.0942 0.0791226 21.4437 1.83931 20.126 4.43984C24.6541 4.43984 29.1827 4.43984 33.7112 4.43984Z" fill="white"/>
          <path d="M4.51199 6.37139C7.16035 6.37139 9.80872 6.37139 12.4563 6.37139C13.0051 6.37139 13.4817 5.9246 13.532 5.37586C13.5845 4.80267 13.1546 4.3422 12.581 4.3422C9.41146 4.3422 6.24149 4.3422 3.07197 4.3422C3.4742 3.16763 3.87726 1.99264 4.2799 0.818075C4.38314 0.516764 4.67346 0.30249 4.99309 0.30249C7.78348 0.30249 10.5739 0.30249 13.3644 0.30249C16.2155 0.30249 18.3555 2.65495 18.0912 5.50228C17.8397 8.22981 15.4701 10.3962 12.7425 10.3979C10.9989 10.3987 9.25575 10.3991 7.51262 10.3995C7.02655 10.3999 6.6078 10.7066 6.45913 11.141C6.14238 12.0644 5.82564 12.9894 5.50848 13.9133C5.40523 14.2146 5.11698 14.4293 4.79735 14.4293C3.5126 14.4293 2.22704 14.4293 0.942705 14.4293C0.259656 14.4293 -0.161159 13.779 0.0581273 13.1382C0.596225 11.567 1.13515 9.99543 1.67366 8.42293C2.0858 7.21937 3.23302 6.37139 4.51199 6.37139Z" fill="white"/>
          <path d="M78.2631 14.4291C77.967 13.315 77.6686 12.2005 77.3717 11.0853C77.26 10.6621 76.9047 10.3989 76.4728 10.3989C76.0612 10.3993 75.6497 10.3993 75.2373 10.3993C74.7517 10.3998 74.3321 10.7065 74.1835 11.1408C73.8676 12.0642 73.5508 12.9893 73.2341 13.9131C73.1304 14.2144 72.8417 14.4291 72.5221 14.4291C71.2382 14.4291 69.9518 14.4291 68.6679 14.4291C67.9849 14.4291 67.5636 13.7788 67.7829 13.138C68.3222 11.5668 68.8595 9.99522 69.3988 8.4228C69.811 7.21961 70.9574 6.37163 72.2364 6.37163C74.8847 6.37163 77.5329 6.37163 80.1808 6.37163C80.7296 6.37163 81.2057 5.92485 81.2567 5.3761C81.3091 4.80291 80.8788 4.34245 80.3045 4.34245C77.1356 4.34245 73.9658 4.34245 70.7967 4.34245C71.199 3.16788 71.6016 1.99289 72.0042 0.818319C72.1071 0.517008 72.3966 0.302734 72.7183 0.302734C75.508 0.302734 78.2991 0.302734 81.0887 0.302734C83.9391 0.302734 86.081 2.6552 85.8156 5.50252C85.6387 7.42601 84.4084 9.06934 82.7411 9.87295C83.1474 11.3858 83.5522 12.8998 83.9586 14.4296C82.0603 14.4291 80.1621 14.4291 78.2631 14.4291Z" fill="white"/>
          <path d="M43.2562 4.33895C43.6164 3.29336 43.9779 2.24693 44.3377 1.2005C44.4917 0.756169 44.1917 0.302734 43.7148 0.302734C42.2984 0.302734 40.8824 0.302734 39.466 0.302734C39.1448 0.302734 38.8535 0.516823 38.7493 0.817876C38.3447 1.99143 37.9401 3.1654 37.5355 4.33895C39.4428 4.33895 41.3493 4.33895 43.2562 4.33895Z" fill="white"/>
          <path d="M46.8251 14.4297C43.0367 14.4297 39.2491 14.4297 35.4611 14.4297C34.7768 14.4297 34.3546 13.7782 34.5748 13.1362C35.3501 10.8769 36.1242 8.61686 36.8991 6.35718C38.8008 6.35718 40.7033 6.35718 42.6054 6.35718C42.3396 7.13158 42.0746 7.90554 41.8089 8.67916C41.5891 9.3215 42.0209 9.97336 42.7043 9.97336C44.3178 9.97336 45.9318 9.97336 47.5458 9.97336C48.2296 9.97336 48.6663 10.6237 48.4466 11.2643C48.1439 12.1467 47.841 13.0299 47.5391 13.9127C47.434 14.2146 47.1446 14.4297 46.8251 14.4297Z" fill="white"/>
          <path d="M59.8935 0.573141C58.8481 1.82869 57.8021 3.08423 56.7558 4.33895C59.5725 4.33895 62.3904 4.33895 65.2087 4.33895C65.1033 3.19107 64.9973 2.04236 64.8918 0.893656C64.8596 0.546638 64.5761 0.302734 64.2295 0.302734C62.9767 0.302734 61.7235 0.302734 60.4703 0.302734C60.2468 0.302734 60.0363 0.402532 59.8935 0.573141Z" fill="white"/>
          <path d="M61.0842 14.4297C62.5099 14.4297 63.9347 14.4297 65.3605 14.4297C65.7899 14.4297 66.1509 14.0376 66.1112 13.6054C65.8897 11.1896 65.669 8.77294 65.447 6.35718C62.0006 6.35718 58.5558 6.35718 55.1102 6.35718C53.3275 8.50103 51.5449 10.6444 49.7619 12.7886C49.2194 13.4398 49.5987 14.4297 50.4674 14.4297C51.6008 14.4297 52.7333 14.4297 53.8655 14.4297C54.0899 14.4297 54.3023 14.3179 54.4439 14.1472C55.3801 13.0228 56.3148 11.898 57.2502 10.7735C57.4552 10.526 57.7616 10.3911 58.0829 10.3911C58.4659 10.3911 58.8477 10.3911 59.2303 10.3911C59.7285 10.3911 60.1376 10.737 60.1836 11.2377C60.2626 12.1002 60.3422 12.9626 60.4205 13.8242C60.4531 14.1726 60.7372 14.4297 61.0842 14.4297Z" fill="white"/>
        </g>
      </g>
    </g>
  </g>
  <defs>
    <clipPath id="clip0_1_836">
      <rect width="89.964" height="14.994" fill="white"/>
    </clipPath>
  </defs>
</svg>