<svg xmlns="http://www.w3.org/2000/svg" width="90" height="23" viewBox="0 0 90 23" fill="none">
  <g clip-path="url(#clip0_1_861)">
    <mask id="mask0_1_861" style="mask-type:luminance" maskUnits="userSpaceOnUse" x="0" y="0" width="90" height="23">
      <path d="M90 0H0V22.5H90V0Z" fill="white"/>
    </mask>
    <g mask="url(#mask0_1_861)">
      <mask id="mask1_1_861" style="mask-type:luminance" maskUnits="userSpaceOnUse" x="0" y="0" width="90" height="23">
        <path d="M90 0H0V22.5H90V0Z" fill="white"/>
      </mask>
      <g mask="url(#mask1_1_861)">
        <mask id="mask2_1_861" style="mask-type:luminance" maskUnits="userSpaceOnUse" x="0" y="0" width="90" height="23">
          <path d="M90 0H0V22.5H90V0Z" fill="white"/>
        </mask>
        <g mask="url(#mask2_1_861)">
          <path d="M25.0343 10.7724C26.0162 8.8101 28.0391 7.46261 30.3771 7.46293C33.6772 7.46351 36.3507 10.1463 36.3498 13.4542C36.3495 14.9997 35.7649 16.4094 34.8053 17.4714C35.6012 18.0422 36.4483 18.6521 37.2293 19.2277C38.5308 17.6624 39.3157 15.6504 39.3157 13.4551C39.3166 7.60262 35.2603 1.99864 27.2758 0.791344C19.2146 -0.428507 12.6565 -0.397918 0.61908 2.02181C5.29179 2.3208 8.6278 3.01781 12.4245 4.23766C15.9654 5.37335 19.024 6.83717 23.7634 9.94545L25.0343 10.7724Z" fill="white"/>
          <path d="M21.3508 12.0548C21.5167 12.162 21.685 12.2698 21.8547 12.3782L22.6265 12.8698C23.2313 13.2552 23.8425 13.6469 24.4316 14.0429C24.7272 17.0739 27.2744 19.4427 30.3743 19.443C30.8875 19.443 31.3856 19.3782 31.8603 19.2567C32.3221 19.5944 32.7916 19.9459 33.2611 20.2997L34.1049 20.9366C34.2917 21.0776 34.4778 21.2179 34.6628 21.3568C33.3636 22.0787 31.8686 22.4901 30.2766 22.4899C25.2865 22.4887 21.2413 18.4419 21.2424 13.4513C21.2424 12.976 21.2789 12.51 21.3508 12.0548ZM46.9302 8.78351V15.717C46.9302 16.2393 46.9814 16.7355 47.0829 17.2069C47.1854 17.6777 47.3506 18.0978 47.5796 18.4674C47.8089 18.8369 48.1052 19.1293 48.4683 19.3456C48.8311 19.5629 49.2798 19.6706 49.8147 19.6706C50.3491 19.6706 50.8006 19.559 51.1705 19.3366C51.5397 19.1136 51.8387 18.8176 52.0684 18.4481C52.2977 18.0782 52.4597 17.6558 52.555 17.178C52.6506 16.7003 52.6979 16.2133 52.6979 15.717V8.78351H55.8308V15.717C55.8308 16.6592 55.7127 17.538 55.4771 18.3528C55.2417 19.1674 54.8785 19.8804 54.3894 20.4915C53.8984 21.1032 53.2745 21.5838 52.5177 21.9337C51.7593 22.2845 50.8579 22.459 49.8147 22.459C48.7321 22.459 47.8089 22.2746 47.045 21.9054C46.2816 21.5362 45.6603 21.0434 45.1828 20.4253C44.7052 19.8073 44.355 19.0917 44.1322 18.2764C43.9091 17.4616 43.798 16.6085 43.798 15.717V8.78351H46.9302ZM12.3285 8.78345C12.9649 8.78345 13.5537 8.91729 14.0949 9.18498C14.6359 9.45234 15.1041 9.80205 15.4988 10.2355C15.8934 10.6685 16.2029 11.1582 16.4253 11.706C16.6479 12.2537 16.7593 12.8069 16.7593 13.3677C16.7593 13.7873 16.7087 14.1921 16.6062 14.5805C16.5043 14.9688 16.3588 15.3348 16.1675 15.6787C15.9762 16.0225 15.7444 16.3315 15.4705 16.6054C15.1968 16.8788 14.8875 17.111 14.5443 17.3023L17.5233 22.3443H13.9902L11.3928 17.9701H9.3488V22.3443H6.21649V8.78345H12.3285ZM63.6182 8.78351L66.8084 18.4097L69.9597 8.78351H73.2633L68.1256 22.3442H65.4899L60.2952 8.78351H63.6182ZM80.0172 8.78351L82.9396 15.0106L85.9 8.78351H89.3187L84.487 17.7226V22.3442H81.3736V17.6839L76.6171 8.78351H80.0172ZM30.4645 10.2949C32.2092 10.2953 33.6226 11.7096 33.6222 13.4539C33.6217 15.1996 32.2077 16.6122 30.4634 16.6118C28.7192 16.6113 27.3052 15.1982 27.3055 13.4525C27.3059 11.7084 28.7204 10.2945 30.4645 10.2949ZM12.1181 11.534H9.3488V15.2395H12.2141C12.5829 15.2395 12.9019 15.0646 13.1694 14.7142C13.4362 14.3641 13.5703 13.9152 13.5703 13.3677C13.5703 12.8069 13.4176 12.3618 13.1112 12.0306C12.8062 11.6996 12.4749 11.534 12.1181 11.534Z" fill="white"/>
        </g>
      </g>
    </g>
  </g>
  <defs>
    <clipPath id="clip0_1_861">
      <rect width="90" height="22.5" fill="white"/>
    </clipPath>
  </defs>
</svg>