<svg xmlns="http://www.w3.org/2000/svg" width="90" height="19" viewBox="0 0 90 19" fill="none">
  <g clip-path="url(#clip0_1_878)">
    <mask id="mask0_1_878" style="mask-type:luminance" maskUnits="userSpaceOnUse" x="0" y="0" width="90" height="19">
      <path d="M89.9856 0H0V18.747H89.9856V0Z" fill="white"/>
    </mask>
    <g mask="url(#mask0_1_878)">
      <mask id="mask1_1_878" style="mask-type:luminance" maskUnits="userSpaceOnUse" x="0" y="0" width="90" height="19">
        <path d="M89.9856 0H0V18.747H89.9856V0Z" fill="white"/>
      </mask>
      <g mask="url(#mask1_1_878)">
        <path d="M8.60932 18.008C6.98613 18.0195 5.37094 17.7814 3.82119 17.3022C2.41371 16.8714 1.11216 16.154 -0.000427246 15.1959L2.99909 11.656C3.85718 12.3272 4.83259 12.8357 5.87641 13.1558C6.84842 13.4521 7.85914 13.6044 8.8759 13.608C9.25602 13.6352 9.63718 13.5708 9.98685 13.4205C10.188 13.3244 10.3169 13.1237 10.3202 12.9022C10.2927 12.6242 10.1001 12.3896 9.83132 12.3067C9.24079 12.0742 8.62597 11.9077 7.99832 11.8104C7.05771 11.6193 6.15785 11.3951 5.29873 11.1378C4.51848 10.9123 3.77146 10.586 3.07686 10.1674C2.43032 9.78177 1.88571 9.24875 1.48823 8.61241C1.08798 7.94689 0.887551 7.18168 0.910535 6.4069C0.904078 5.64692 1.06325 4.89455 1.37713 4.20136C1.69163 3.51153 2.15868 2.90092 2.74358 2.41489C3.39864 1.87751 4.1535 1.47288 4.96544 1.2239C5.95485 0.922717 6.98575 0.777592 8.02051 0.79382C9.4878 0.751534 10.9528 0.933785 12.3643 1.33418C13.5721 1.69447 14.7022 2.27404 15.697 3.04346L12.9642 6.80389C12.1967 6.24962 11.3403 5.82829 10.4312 5.55777C9.61806 5.30563 8.77234 5.1719 7.92056 5.16077C7.60163 5.13763 7.28251 5.20251 6.99845 5.34824C6.81383 5.44599 6.6985 5.63678 6.6985 5.84449C6.72617 6.10685 6.90343 6.33 7.15398 6.41792C7.72454 6.65282 8.32122 6.81941 8.93147 6.91417C9.92214 7.08299 10.9016 7.31131 11.8643 7.59789C12.6508 7.83696 13.3989 8.18602 14.0862 8.63445C14.6711 9.02724 15.1576 9.54781 15.5082 10.1563C15.8786 10.8312 16.0553 11.5941 16.0193 12.3618C16.0319 13.1793 15.8491 13.988 15.486 14.7218C15.1349 15.42 14.6253 16.0277 13.9974 16.4972C13.2981 17.003 12.511 17.3769 11.6755 17.5999C10.678 17.8791 9.64565 18.0165 8.60932 18.008Z" fill="white"/>
        <path d="M20.6522 5.74539H15.6974V1.04761H31.2505V5.74539H26.2624V17.6994H20.6522V5.74539Z" fill="white"/>
        <path d="M31.9948 1.04747H40.1379C41.391 1.01024 42.6415 1.1817 43.8374 1.55474C44.7097 1.83935 45.5068 2.3141 46.1703 2.94422C46.6529 3.43388 47.0307 4.01527 47.2813 4.6535C47.5481 5.35823 47.68 6.10624 47.6701 6.85904C47.7053 7.95514 47.3946 9.03467 46.7813 9.94682C46.1635 10.8107 45.3285 11.4989 44.3595 11.9428L48.27 17.611H41.9599L38.7937 12.8471H37.605V17.611H31.9948V1.04747ZM40.0269 8.9764C40.5858 9.00685 41.1395 8.8559 41.6044 8.54627C41.9839 8.26889 42.2002 7.82279 42.1821 7.35528C42.2146 6.88189 41.9955 6.42606 41.6044 6.15326C41.1382 5.86803 40.596 5.72963 40.049 5.75627H37.605V9.06459H40.0269V8.9764Z" fill="white"/>
        <path d="M80.8089 10.5314L84.475 17.6993H89.8517L80.8089 0L71.7772 17.6993H77.1539L80.8089 10.5314Z" fill="white"/>
        <path d="M55.6682 10.5314L59.3232 17.6993H64.7001L55.6682 0L46.6364 17.6993H52.0133L55.6682 10.5314Z" fill="white"/>
        <path d="M68.244 8.20456L64.5891 1.04761H59.2122L68.244 18.747L77.2761 1.04761H71.899L68.244 8.20456Z" fill="white"/>
      </g>
    </g>
  </g>
  <defs>
    <clipPath id="clip0_1_878">
      <rect width="89.9856" height="18.747" fill="white"/>
    </clipPath>
  </defs>
</svg>