<svg xmlns="http://www.w3.org/2000/svg" width="90" height="23" viewBox="0 0 90 23" fill="none">
  <g clip-path="url(#clip0_1_895)">
    <mask id="mask0_1_895" style="mask-type:luminance" maskUnits="userSpaceOnUse" x="-1" y="0" width="91" height="23">
      <path d="M89.9996 0H-0.000366211V22.5H89.9996V0Z" fill="white"/>
    </mask>
    <g mask="url(#mask0_1_895)">
      <mask id="mask1_1_895" style="mask-type:luminance" maskUnits="userSpaceOnUse" x="-1" y="0" width="91" height="23">
        <path d="M89.9996 0H-0.000366211V22.5H89.9996V0Z" fill="white"/>
      </mask>
      <g mask="url(#mask1_1_895)">
        <mask id="mask2_1_895" style="mask-type:luminance" maskUnits="userSpaceOnUse" x="-1" y="0" width="91" height="23">
          <path d="M89.9996 0H-0.000366211V22.5H89.9996V0Z" fill="white"/>
        </mask>
        <g mask="url(#mask2_1_895)">
          <path d="M14.1415 1.68074C12.2661 0.382526 9.6468 -0.199855 6.87377 0.0610023C4.11306 0.321857 1.6905 1.63218 0.350105 3.5795L-0.000366211 4.08908V9.50034L0.300916 9.9189C1.13713 11.0958 2.63739 11.9997 4.94312 12.7277C4.96909 12.7358 4.99517 12.7439 5.02146 12.752L5.07432 12.7682C5.70358 12.9592 6.47629 13.1486 8.5155 13.6133C9.6468 13.8742 10.151 14.129 10.5138 14.6264L10.6983 14.8752V16.7497L10.483 17.0409C9.80668 17.9508 8.26337 18.2966 6.9783 17.8235C6.56018 17.6718 6.19129 17.3987 5.92075 17.0469L5.71785 16.7861V14.9782H-0.000366211V18.333L0.165647 18.6121C1.21091 20.3955 3.35678 21.7909 5.79163 22.2822C7.7469 22.6765 10.2924 22.5249 12.0202 21.9122C12.6104 21.6999 13.4651 21.2752 14.0185 20.9052C14.621 20.5048 15.697 19.4431 16.0967 18.8426L16.4165 18.3633V12.752L16.1705 12.3758C15.6417 11.575 14.5657 10.7196 13.379 10.1615C12.1616 9.58519 10.895 9.19697 8.84747 8.76626C6.90456 8.35374 6.3942 8.15355 5.9392 7.63187L5.71785 7.371V5.71488L5.9269 5.45399C6.21588 5.09607 6.75079 4.75032 7.26116 4.59865C7.83915 4.42879 8.82902 4.45307 9.35783 4.65933C9.84358 4.84132 10.2555 5.13247 10.4953 5.44186L10.6983 5.70882V7.33461H16.4165V4.16188L16.2504 3.88279C15.8446 3.19122 14.9039 2.20852 14.1415 1.68074Z" fill="white"/>
          <path d="M33.3297 4.75076V0.438232H17.9018V4.75076H22.6535V22.0617H28.6396V4.75076H33.3297Z" fill="white"/>
          <path fill-rule="evenodd" clip-rule="evenodd" d="M41.661 0.438304C45.5031 0.439217 46.3081 0.451672 47.0257 0.62239L47.0821 0.636238C47.2327 0.673955 47.3829 0.718832 47.5601 0.772286C48.157 0.948435 49.0555 1.37362 49.5786 1.72591C50.1447 2.1025 51.0554 3.00148 51.437 3.56029L51.7752 4.05223V10.7944L51.4245 11.3107C50.9506 11.997 50.2001 12.7381 49.5047 13.1875C49.1971 13.388 48.8894 13.5702 48.8217 13.5884C48.754 13.6127 48.6985 13.6491 48.6985 13.6795C48.6985 13.7099 49.4492 14.8761 50.36 16.2731L52.0214 18.8181V22.0617L49.6399 22.0495L47.2585 22.0313L45.0372 18.2533L42.822 14.4752L42.1018 14.4692H41.3757V22.0617H35.4067V0.438232L41.661 0.438304ZM42.7728 4.75083L41.3757 4.75076V10.3388H42.8711C44.7049 10.3388 45.1294 10.2477 45.6832 9.75571L45.6917 9.748C46.089 9.38961 46.1125 9.36839 46.1138 7.8751V7.27525C46.1124 5.78192 46.0888 5.76069 45.686 5.40234L45.6771 5.3946C45.3694 5.11519 44.908 4.9026 44.4219 4.81757C44.225 4.78112 43.4556 4.75076 42.7172 4.75076L42.7728 4.75083Z" fill="white"/>
          <path d="M70.4168 3.65744V0.438232H65.5106L63.9923 3.82754L62.4679 7.21071L62.2024 7.22896L61.9309 7.24111L60.4434 3.85787L58.9559 0.468568L56.228 0.450366L53.5061 0.438232V3.65744L56.16 8.46196L58.814 13.2726V22.0617H64.8008V13.8496L67.6088 8.75356L70.4168 3.65744Z" fill="white"/>
          <path d="M78.0712 0.438304C81.3279 0.439712 83.2185 0.463812 83.5175 0.505043C85.1902 0.729716 86.6655 1.41589 87.795 2.47247C88.3691 3.0129 88.6777 3.38933 89.0968 4.08157L89.4054 4.58558V17.8353L89.1405 18.2907C88.2328 19.8574 86.789 21.0172 85.0172 21.5941C83.7026 22.0192 83.8016 22.0131 77.852 22.0435L72.4944 22.0617V0.438232L78.0712 0.438304ZM79.8577 4.74954H78.4813V17.6896L80.0737 17.6714C81.8512 17.6411 82.0177 17.6107 82.6535 17.2098C82.8817 17.0641 83.1041 16.8577 83.2211 16.6816L83.4191 16.3901L83.4185 10.7324C83.4185 10.6919 83.4185 10.6517 83.4185 10.6119V10.3768C83.4165 6.79497 83.4011 6.04533 83.3323 5.91545C83.1967 5.66041 82.647 5.18071 82.3327 5.04712C82.1842 4.98033 81.8698 4.88313 81.6416 4.84062C81.3575 4.7799 80.802 4.74954 79.8577 4.74954Z" fill="white"/>
        </g>
      </g>
    </g>
  </g>
  <defs>
    <clipPath id="clip0_1_895">
      <rect width="90" height="22.5" fill="white" transform="translate(-0.000366211)"/>
    </clipPath>
  </defs>
</svg>