<svg xmlns="http://www.w3.org/2000/svg" width="90" height="32" viewBox="0 0 90 32" fill="none">
  <g clip-path="url(#clip0_1_915)">
    <mask id="mask0_1_915" style="mask-type:luminance" maskUnits="userSpaceOnUse" x="0" y="0" width="90" height="32">
      <path d="M89.9655 0H0.00012207V31.05H89.9655V0Z" fill="white"/>
    </mask>
    <g mask="url(#mask0_1_915)">
      <mask id="mask1_1_915" style="mask-type:luminance" maskUnits="userSpaceOnUse" x="0" y="0" width="90" height="32">
        <path d="M89.9655 0H0.00012207V31.05H89.9655V0Z" fill="white"/>
      </mask>
      <g mask="url(#mask1_1_915)">
        <mask id="mask2_1_915" style="mask-type:luminance" maskUnits="userSpaceOnUse" x="0" y="0" width="90" height="32">
          <path d="M89.9655 0H0.00012207V31.05H89.9655V0Z" fill="white"/>
        </mask>
        <g mask="url(#mask2_1_915)">
          <path fill-rule="evenodd" clip-rule="evenodd" d="M45.7698 4.18845L45.7654 0L43.7294 0.00220935L43.7403 9.10203L45.7764 9.09956L45.7725 6.21639C45.7715 5.55898 46.0282 4.8785 46.8338 4.87752C47.6502 4.87654 47.7518 5.55677 47.7528 6.21467L47.756 9.09741L49.7911 9.09494L49.7872 5.65349C49.7857 4.22723 49.0804 3.28555 47.6258 3.28727C46.8318 3.28826 46.2614 3.57424 45.7925 4.18845H45.7698ZM38.7602 6.30133C38.7614 7.01398 39.2426 7.56141 40.0713 7.56043C40.8985 7.55895 41.3785 7.01103 41.3776 6.29839C41.3769 5.6076 40.8958 5.02654 40.068 5.02752C39.2402 5.02851 38.7594 5.61054 38.7602 6.30133ZM41.3139 9.1045L43.3505 9.10179L43.3435 3.47803L41.3074 3.48024L41.3082 4.02865C40.8828 3.53547 40.1891 3.29563 39.5288 3.29612C37.8288 3.29834 36.6557 4.68164 36.6574 6.2925C36.6593 7.90435 37.858 9.29526 39.5586 9.2935C40.2296 9.29303 40.9339 9.03921 41.2911 8.47999H41.3131L41.3139 9.1045ZM33.6875 6.53698L35.1263 3.48733L37.3751 3.48488L34.3839 9.11214L33.0634 9.11405L31.6398 6.03545L30.2224 9.11724L28.9023 9.11875L25.898 3.49813L28.1572 3.49543L29.5928 6.54213L31.0325 3.49224L32.2405 3.49052L33.6875 6.53698ZM53.4306 7.5447C52.6022 7.54568 52.1207 6.9985 52.1198 6.2861C52.1187 5.59507 52.6003 5.01328 53.4274 5.01229C54.2547 5.01106 54.7369 5.59237 54.7374 6.28316C54.7384 6.99531 54.2577 7.54421 53.4306 7.5447ZM56.8852 6.28046C56.8874 8.18741 55.2775 9.27535 53.4325 9.27734C51.5982 9.27981 49.9747 8.20723 49.9725 6.28832C49.97 4.36986 51.5792 3.28212 53.4249 3.2804C55.2705 3.27844 56.883 4.36176 56.8852 6.28046ZM60.6115 7.53688C59.785 7.53762 59.303 6.99043 59.3022 6.27779C59.3017 5.587 59.7817 5.0052 60.6091 5.00398C61.4372 5.003 61.9187 5.58406 61.9196 6.27485C61.9207 6.98725 61.4394 7.53565 60.6115 7.53688ZM64.0676 6.27239C64.0699 8.17953 62.4599 9.26731 60.6135 9.26954C58.7805 9.27145 57.1566 8.19919 57.1542 6.28024C57.152 4.36179 58.7617 3.2743 60.6066 3.27209C62.4527 3.27012 64.0649 4.35393 64.0676 6.27239ZM6.29202 13.8416C9.43757 13.8416 14.3994 14.2766 14.3994 14.2766L14.3737 18.1678H6.08723C5.54991 18.1678 5.44764 18.192 5.44764 18.6994V18.8929C5.44764 19.2555 5.72901 19.3281 6.26633 19.4246C6.26633 19.4246 11.3559 20.2946 11.663 20.343C14.9876 20.9233 15.5504 22.1556 15.5504 24.621V26.5544C15.5504 29.5756 14.0669 31.05 9.36074 31.05C6.21519 31.05 0.204672 30.615 0.204672 30.615L0.230118 26.6995H8.67032C9.77036 26.6995 10.2049 26.4821 10.2049 25.7569V25.2735C10.2049 25.056 10.1795 24.7661 9.74465 24.6934C9.43757 24.621 5.54991 23.9685 5.34536 23.9442L5.12616 23.9078C1.64462 23.3298 0.00012207 23.0567 0.00012207 19.8837V18.2885C0.00012207 15.2916 1.58589 13.8416 6.29202 13.8416ZM21.7437 13.9868H15.6823L22.7158 26.047V30.9049H28.0353V25.9747L35.0178 13.9868H28.9563L25.3501 20.1982L21.7437 13.9868ZM41.3094 13.8416C44.4555 13.8416 49.4168 14.2766 49.4168 14.2766L49.3914 18.1678H41.1049C40.5678 18.1678 40.4653 18.192 40.4653 18.6994V18.8929C40.4653 19.2555 40.7466 19.3281 41.284 19.4246C41.284 19.4246 46.3735 20.2946 46.6806 20.343C50.0053 20.9233 50.5678 22.1556 50.5678 24.621V26.5544C50.5678 29.5756 49.0848 31.05 44.3784 31.05C41.2328 31.05 35.2226 30.615 35.2226 30.615L35.248 26.6995H43.6879C44.788 26.6995 45.2225 26.4821 45.2225 25.7569V25.2735C45.2225 25.056 45.1971 24.7661 44.7624 24.6934C44.4555 24.621 40.5678 23.9685 40.363 23.9442L40.1438 23.9078C36.6623 23.3298 35.0178 23.0567 35.0178 19.8837V18.2885C35.0178 15.2916 36.6035 13.8416 41.3094 13.8416ZM67.3484 13.9868H50.9797V18.0954H56.6891V30.905H62.009V18.0954H67.3484V13.9868ZM79.3002 23.2191H79.4536L83.0597 14.2283C83.0597 14.2283 83.1106 13.9868 83.4179 13.9868H89.9655V30.905H84.6456V22.7117H84.3646L81.8065 30.5667C81.8065 30.5667 81.7301 30.905 81.3718 30.905H77.3821C77.0239 30.905 76.9726 30.5667 76.9726 30.5667L74.3898 22.7117H74.1081V30.905H68.7884V13.9868H75.3613C75.6428 13.9868 75.6941 14.2283 75.6941 14.2283L79.3002 23.2191Z" fill="white"/>
        </g>
      </g>
    </g>
  </g>
  <defs>
    <clipPath id="clip0_1_915">
      <rect width="89.9654" height="31.05" fill="white"/>
    </clipPath>
  </defs>
</svg>