<svg width="183" height="191" viewBox="0 0 183 191" fill="none" xmlns="http://www.w3.org/2000/svg">
<path d="M91.4577 190.722C141.968 190.722 182.915 149.744 182.915 99.1949C182.915 48.6461 141.968 7.66821 91.4577 7.66821C40.947 7.66821 0 48.6461 0 99.1949C0 149.744 40.947 190.722 91.4577 190.722Z" fill="url(#paint0_radial_1_2905)"/>
<path style="mix-blend-mode:screen" opacity="0.8" d="M28.0027 165.055C14.167 151.719 4.88383 134.357 1.47266 115.439C18.9796 134.726 48.1087 144.247 75.5215 144.247C89.1301 144.456 102.63 141.798 115.145 136.443C118.062 145.339 119.922 154.546 120.686 163.877C97.2458 178.305 58.7992 180.317 28.0027 165.055ZM133.093 42.3648C126.723 48.7005 121.081 55.7293 116.273 63.3202C143.244 77.1106 164.233 124.322 155.504 164.466C169.504 150.757 178.706 132.89 181.74 113.525C176.591 81.3802 155.357 50.7568 133.093 42.1194V42.3648ZM33.7403 97.7225C43.2482 100.95 53.1427 102.897 63.1637 103.513C59.5348 71.565 76.9436 29.3597 105.975 8.74775C101.104 8.03218 96.1851 7.70398 91.263 7.76623C77.6916 7.7485 64.2878 10.7666 52.0318 16.5999C33.9365 41.0888 27.5123 73.8225 33.7403 97.7225Z" fill="url(#paint1_radial_1_2905)"/>
<mask id="mask0_1_2905" style="mask-type:luminance" maskUnits="userSpaceOnUse" x="0" y="7" width="183" height="184">
<path d="M91.4577 190.673C141.968 190.673 182.915 149.695 182.915 99.1458C182.915 48.597 141.968 7.61914 91.4577 7.61914C40.947 7.61914 0 48.597 0 99.1458C0 149.695 40.947 190.673 91.4577 190.673Z" fill="white"/>
</mask>
<g mask="url(#mask0_1_2905)">
<path opacity="0.3" d="M135.396 40.0583C140.876 34.9495 146.782 30.3195 153.05 26.2189L149.078 25.2374C148.637 25.5319 105.532 52.6709 98.7151 101.796C87.9019 103.513 76.9455 104.154 66.0061 103.71C61.3964 64.4491 88.8583 10.1711 130.443 0.650341L129.806 -2.04884C86.9948 7.76636 58.6503 63.2222 63.0638 103.514C53.0428 102.897 43.1483 100.95 33.6404 97.7226C24.6663 63.8602 41.6828 12.1832 81.4534 -9.01763L80.0803 -11.6187C39.9174 9.82755 22.3124 61.5046 30.5509 96.3485C18.6579 92.1884 8.10431 84.8988 -0.000360012 75.2458L-2.40326 76.9144C-2.15806 77.307 25.3528 116.175 99.6959 104.495C106.204 113.261 111.178 123.068 114.408 133.499C78.3639 150.087 18.046 140.271 -3.72733 103.612L-6.27734 105.084C9.21898 131.34 43.5463 144.345 75.5197 144.345C89.1283 144.555 102.629 141.896 115.143 136.542C118.052 145.405 119.912 154.58 120.685 163.877C90.8198 182.281 36.2885 180.514 4.75643 148.271L2.64775 150.332C12.1885 159.535 23.4492 166.764 35.7852 171.606C48.1213 176.448 61.2904 178.808 74.5389 178.551C90.6413 178.826 106.54 174.921 120.685 167.214C121.07 174.909 120.209 182.615 118.135 190.035L120.93 190.869C131.62 154.749 108.376 109.795 101.559 102.532C103.383 89.5237 107.82 77.0196 114.604 65.7742C143.439 80.4969 165.114 136.542 148.931 176.539L151.677 177.667C168.988 135.315 146.381 78.6321 116.369 63.2713C121.135 55.6168 126.744 48.5218 133.091 42.1195C163.201 53.5052 191.448 105.477 180.757 146.799L183.651 147.535C194.782 104.495 166.438 52.8672 135.396 40.0583Z" fill="#E78900"/>
<path opacity="0.5" d="M118.724 189.74C120.71 182.405 121.538 174.805 121.176 167.214C121.206 167.162 121.222 167.103 121.222 167.042C121.222 166.982 121.206 166.923 121.176 166.871H120.685C106.565 174.543 90.7025 178.432 74.6376 178.158C61.4524 178.473 48.335 176.176 36.0395 171.401C23.744 166.626 12.5129 159.465 2.99161 150.332L4.56085 148.811C13.8272 157.711 24.755 164.698 36.7201 169.372C48.6851 174.045 61.453 176.314 74.2943 176.048C90.5428 176.382 106.577 172.294 120.685 164.221C120.711 164.167 120.725 164.108 120.725 164.049C120.725 163.989 120.711 163.931 120.685 163.877C120.156 154.537 118.51 145.293 115.781 136.345C115.811 136.266 115.811 136.179 115.781 136.1H115.438C103.039 141.377 89.6794 144.017 76.2068 143.854C40.8987 143.854 9.07245 128.739 -5.05078 105.231L-3.18731 104.152C10.5436 127.021 41.5853 141.744 76.0107 141.744C89.4916 142 102.87 139.356 115.242 133.99C115.274 133.958 115.3 133.92 115.318 133.877C115.336 133.835 115.345 133.79 115.345 133.744C115.345 133.699 115.336 133.653 115.318 133.611C115.3 133.569 115.274 133.531 115.242 133.499C111.992 123.031 107.02 113.178 100.53 104.348C91.5848 105.692 82.5551 106.397 73.5097 106.458C22.2149 106.458 1.0791 80.3497 -1.32381 77.0125L0.441598 75.7856C8.59861 85.3135 19.1187 92.524 30.9438 96.692H31.189C31.2383 96.5658 31.2383 96.4256 31.189 96.2994C22.6072 61.7499 40.3593 10.2201 79.7867 -11.0789L80.8165 -9.16489C40.9968 12.3304 24.1274 63.4185 33.3958 97.8207C42.8719 101.213 52.7757 103.261 62.8192 103.906C62.8726 103.915 62.9273 103.91 62.9787 103.893C63.0301 103.877 63.0769 103.848 63.1151 103.81C63.1533 103.771 63.182 103.725 63.1988 103.673C63.2155 103.622 63.2199 103.567 63.2115 103.514C58.7489 62.9768 86.6521 8.30616 129.267 -1.75442L129.757 0.355844C88.5156 10.171 60.8576 64.7435 65.4183 103.759C65.4183 103.759 65.4182 104.053 65.8105 104.102C68.0173 104.102 70.3221 104.102 72.676 104.102C81.365 104.078 90.0387 103.372 98.6176 101.992C98.6957 101.992 98.7705 101.961 98.8257 101.906C98.8809 101.851 98.9118 101.776 98.9118 101.698C105.679 52.6218 148.686 25.6791 149.079 25.4337L151.923 26.2189C146.061 30.2846 140.535 34.8141 135.397 39.7639C135.362 39.8235 135.344 39.8912 135.344 39.9602C135.344 40.0291 135.362 40.0968 135.397 40.1565C135.375 40.2025 135.364 40.2528 135.364 40.3037C135.364 40.3546 135.375 40.4049 135.397 40.4509C166.046 53.1125 194.244 104.79 183.455 147.24L181.346 146.7C191.939 104.839 163.398 53.456 133.337 41.9723C126.706 48.3186 120.816 55.3982 115.781 63.0749C115.712 63.1479 115.674 63.2445 115.674 63.3449C115.674 63.4453 115.712 63.5419 115.781 63.6148C145.499 78.8283 167.959 135.217 151.04 177.128L149.03 176.342C165.213 136.247 143.439 79.9571 114.702 65.4306C114.592 65.3892 114.47 65.3892 114.359 65.4306C107.46 76.7494 102.938 89.3568 101.07 102.483C108.229 110.286 130.787 154.994 120.685 190.378L118.724 189.74Z" fill="#E78900"/>
<path opacity="0.6" d="M119.166 189.347C121.133 182.077 121.944 174.541 121.569 167.018C121.486 166.779 121.352 166.561 121.176 166.38H120.784H120.392C106.338 174.036 90.5387 177.909 74.5403 177.618C48.2368 178.139 22.784 168.286 3.679 150.185L4.70881 149.252C23.4956 167.092 48.5489 176.807 74.4423 176.293C90.7391 176.754 106.856 172.786 121.078 164.809C121.201 164.734 121.3 164.624 121.361 164.493C121.422 164.362 121.443 164.216 121.422 164.073C120.645 154.592 118.752 145.235 115.782 136.198C115.662 136.012 115.513 135.847 115.341 135.707H114.703C102.316 141.023 88.9484 143.665 75.4721 143.461C40.5073 143.461 8.87713 128.739 -5.24609 105.378L-4.02012 104.691C9.85791 127.463 40.8996 142.136 75.2759 142.136C88.7518 142.336 102.119 139.694 114.507 134.382C114.683 134.297 114.82 134.149 114.893 133.967C114.966 133.786 114.968 133.584 114.899 133.401C111.687 122.827 106.713 112.871 100.188 103.955C91.1317 105.17 82.0096 105.826 72.873 105.918C23.1965 105.918 1.86456 81.3802 -1.37201 77.0616L-0.244134 76.3254C7.9516 85.7314 18.4193 92.8785 30.1601 97.0846H30.4543C30.532 97.117 30.6153 97.1336 30.6995 97.1336C30.7837 97.1336 30.867 97.117 30.9447 97.0846C31.0248 96.9693 31.0678 96.8323 31.0678 96.6919C31.0678 96.5516 31.0248 96.4145 30.9447 96.2993C22.8532 61.9462 40.3602 10.7599 79.3952 -10.5391L80.0327 -9.36124C40.3111 12.3794 23.4907 63.5657 32.7591 97.9188C42.3851 101.545 52.5031 103.696 62.771 104.299H63.4085C63.4929 104.094 63.4929 103.865 63.4085 103.661C58.995 63.5166 86.6039 9.18948 128.777 -1.11648L129.121 0.257653C87.8789 10.3182 60.4661 65.087 64.8306 104.004C64.8617 104.183 64.9504 104.347 65.0832 104.471C65.2159 104.595 65.3856 104.673 65.5662 104.691C67.822 104.691 70.0778 104.691 72.4807 104.691C81.186 104.668 89.8761 103.962 98.4714 102.581C98.6333 102.561 98.7838 102.487 98.8992 102.371C99.0146 102.256 99.0884 102.105 99.1089 101.943C105.827 53.3088 148.687 26.2188 149.129 25.9735L150.845 26.5624C145.035 30.4181 139.556 34.7518 134.466 39.5184C134.334 39.7439 134.25 39.9947 134.221 40.2546C134.241 40.3883 134.297 40.5141 134.383 40.6179C134.47 40.7218 134.583 40.7999 134.711 40.8435C165.066 53.4069 193.018 104.642 182.622 146.799L181.298 146.455C191.645 104.544 162.958 53.2106 132.946 41.6287C132.853 41.5882 132.753 41.5672 132.652 41.5672C132.55 41.5672 132.45 41.5882 132.357 41.6287C126.055 48.0686 120.495 55.1966 115.782 62.8786C115.73 63.0714 115.73 63.2747 115.782 63.4675C115.804 63.5746 115.851 63.6751 115.919 63.7604C115.987 63.8458 116.075 63.9136 116.174 63.9583C145.598 79.0246 168.009 134.971 151.433 176.833L150.109 176.097C166.047 135.904 144.078 79.6135 115.292 65.087H114.997C114.556 65.087 114.409 65.087 114.262 65.3815C107.394 76.7067 102.906 89.3142 101.07 102.434C109.064 111.366 130.494 155.191 120.686 189.887L119.166 189.347Z" fill="#E78900"/>
<g style="mix-blend-mode:multiply" opacity="0.4">
<path d="M119.657 189.348C121.536 182.145 122.313 174.699 121.962 167.263C121.883 166.878 121.676 166.532 121.373 166.282H120.834C120.623 166.242 120.407 166.242 120.196 166.282C106.2 173.899 90.4699 177.754 74.5408 177.471C48.488 177.98 23.2688 168.276 4.268 150.43L4.66028 150.038C23.531 167.759 48.569 177.409 74.4428 176.931C90.8609 177.197 107.044 173.008 121.275 164.81C121.462 164.691 121.611 164.522 121.707 164.323C121.802 164.123 121.84 163.901 121.814 163.681C121.073 154.267 119.213 144.975 116.273 136.002C116.168 135.75 115.999 135.53 115.783 135.364H115.194C102.697 140.657 89.238 143.298 75.6687 143.118C41.0472 143.118 9.66229 128.395 -4.46094 105.575L-3.97056 105.231C10.0546 127.954 41.1943 142.578 75.4726 142.578C88.9527 142.769 102.321 140.11 114.704 134.775C114.969 134.647 115.179 134.428 115.296 134.158C115.413 133.887 115.429 133.584 115.341 133.303C112.107 122.737 107.135 112.786 100.63 103.857C91.4845 104.989 82.2837 105.611 73.0697 105.722C24.9624 105.722 3.72856 82.8036 -0.488792 77.3562L0.00159025 77.0127C8.19087 86.3695 18.6426 93.4665 30.3567 97.6246H30.7981C31.0503 97.7231 31.3304 97.7231 31.5827 97.6246C31.7301 97.4805 31.8388 97.3015 31.8988 97.1042C31.9588 96.9069 31.9682 96.6977 31.926 96.4958C23.8836 62.1426 41.2434 11.5944 79.8371 -9.75366L80.1313 -9.2629C40.1155 12.3796 23.3932 63.7131 32.4164 98.0172C42.1123 101.855 52.3612 104.108 62.7715 104.692C63.1132 104.693 63.444 104.571 63.7032 104.348C63.8277 104.229 63.9234 104.083 63.9829 103.922C64.0424 103.76 64.0642 103.587 64.0465 103.416C59.682 63.664 86.9477 9.63135 128.729 -0.821834V-0.232923C87.5852 10.073 60.0744 65.0381 64.5369 103.808C64.5703 104.091 64.7011 104.354 64.907 104.551C65.1128 104.748 65.3807 104.867 65.6648 104.888C67.8879 104.888 70.1927 104.888 72.5793 104.888C81.3009 104.865 90.0074 104.16 98.619 102.778C98.8717 102.755 99.1085 102.645 99.2879 102.465C99.4672 102.286 99.5777 102.049 99.5998 101.796C106.318 53.4071 148.982 26.3663 149.423 26.1209L150.11 26.4153C144.506 30.2134 139.21 34.447 134.27 39.0769C134.033 39.3665 133.911 39.7334 133.927 40.1075C133.959 40.3072 134.045 40.4946 134.174 40.65C134.303 40.8054 134.472 40.9231 134.663 40.9909C164.674 53.4071 192.529 104.299 182.427 146.112H181.838C191.989 104.152 163.154 52.5728 133.191 41.2363H132.799C132.635 41.2187 132.47 41.2407 132.316 41.3005C132.162 41.3602 132.025 41.456 131.916 41.5798C125.484 47.9648 119.777 55.042 114.9 62.6825C114.829 62.9892 114.829 63.3082 114.9 63.6149C115.01 63.9313 115.216 64.2056 115.488 64.4001C144.618 79.1229 166.93 134.726 150.698 176.146H150.159C165.851 135.855 143.784 79.4665 115.047 64.989H114.557C114.35 64.9729 114.143 65.0095 113.954 65.0953C113.765 65.1811 113.602 65.3134 113.478 65.4798C106.609 76.8578 102.121 89.5135 100.286 102.679C108.427 112.004 129.71 155.043 119.902 189.691L119.657 189.348Z" fill="#E78900"/>
</g>
<path style="mix-blend-mode:screen" d="M29.8154 96.1031C28.7363 90.1639 28.3088 84.1244 28.5404 78.0922C28.4625 84.2315 29.1044 90.3588 30.4529 96.3485L29.8154 96.1031ZM99.5979 107.783C105.533 115.756 110.137 124.64 113.231 134.088L114.212 133.646C110.982 123.215 106.008 113.408 99.4998 104.642H98.7152C87.9047 106.383 76.9458 107.025 66.0062 106.556H63.0148C54.5048 105.982 46.0844 104.468 37.9069 102.041C36.5828 101.649 35.2588 101.256 34.0328 100.814H33.6895C20.4528 96.7113 8.5177 89.2167 -0.932039 79.0737L-2.5503 80.1534C-2.25606 80.546 25.2548 119.414 99.5979 107.783ZM130.492 3.74212L129.806 0.895715C127.447 1.40795 125.122 2.06351 122.842 2.85875C87.9266 15.962 64.7802 60.7684 65.5648 96.5939C66.2024 58.8544 92.3892 12.6739 130.492 3.74212ZM133.092 42.3158C126.722 48.6515 121.08 55.6804 116.271 63.2713L117.791 64.1546C122.289 57.4516 127.412 51.1909 133.092 45.4567C158.347 54.9774 182.131 93.0604 183.062 129.426C183.602 92.128 159.033 51.9347 133.092 42.1195V42.3158ZM62.8186 103.514C62.5629 101.249 62.432 98.9714 62.4264 96.692C62.6225 98.9986 62.6715 101.256 62.8186 103.514ZM81.4535 -5.92585L80.1784 -8.28149C48.0579 9.68031 31.1395 47.616 31.5318 79.1719C32.4145 47.8614 49.48 11.1526 81.4535 -5.92585ZM137.799 41.0889C142.635 36.8032 147.782 32.8827 153.197 29.3598L149.814 28.5255C144.741 32.0225 139.923 35.8766 135.396 40.0583L137.799 41.0889ZM151.677 177.667L149.961 176.931L148.931 179.63L151.677 180.759C156.014 169.843 158.051 158.147 157.66 146.406C157.621 157.117 155.557 167.724 151.579 177.667H151.677ZM114.8 65.7742C108.016 77.0196 103.579 89.5237 101.756 102.532L102.197 103.072C104.187 90.9257 108.464 79.2681 114.8 68.7187C136.328 79.5645 154.031 113.672 154.571 146.946C155.012 112.936 136.917 76.9635 114.702 65.7742H114.8ZM183.749 147.731L181.542 147.142C181.542 148.124 181.101 149.105 180.855 150.087L183.749 150.823C185.52 143.682 186.345 136.34 186.201 128.984C186.064 135.31 185.208 141.599 183.651 147.731H183.749ZM75.863 147.388C89.4751 147.582 102.976 144.906 115.487 139.535C118.065 147.512 119.807 155.736 120.685 164.073H120.979C120.23 154.745 118.387 145.537 115.487 136.64C113.574 137.523 111.563 138.259 109.553 138.996C83.4726 147.658 55.1061 146.311 29.9625 135.217C16.0674 129.538 4.13518 119.917 -4.36475 107.538L-5.83594 108.421C9.21903 134.431 43.5463 147.388 75.5198 147.388H75.863ZM120.685 173.103C120.685 171.14 120.685 169.177 120.685 167.214C116.94 169.361 113.019 171.184 108.964 172.662L106.463 173.545L104.257 174.232C82.6004 180.713 59.443 180.111 38.152 172.514C25.4336 168.203 13.8159 161.15 4.11901 151.853L2.50071 153.473C21.7936 172.053 47.6707 182.203 74.4409 181.692C90.5729 181.953 106.5 178.049 120.685 170.355C120.685 171.238 120.685 172.171 120.685 173.103ZM120.685 190.869L118.576 190.231C118.576 191.212 118.135 192.194 117.889 193.126L120.685 193.961C122.761 186.724 123.672 179.203 123.382 171.68C123.509 178.156 122.716 184.616 121.028 190.869H120.685Z" fill="url(#paint2_radial_1_2905)"/>
</g>
<g style="mix-blend-mode:screen" opacity="0.8">
<path d="M166.244 68.5224C171.148 106.704 140.4 142.136 97.3438 147.878C54.2876 153.62 15.2526 127.266 10.2506 88.9871C5.24864 50.7078 36.0942 15.3731 78.9052 9.63123C121.716 3.88934 161.193 30.3904 166.244 68.5224Z" fill="black"/>
<path d="M97.0791 146.63C139.607 140.989 170.039 105.878 165.05 68.208C160.061 30.5377 121.54 4.57288 79.0121 10.2139C36.4838 15.8548 6.05225 50.9655 11.0413 88.6358C16.0304 126.306 54.5508 152.271 97.0791 146.63Z" fill="url(#paint3_radial_1_2905)"/>
<path d="M163.792 67.8352C168.696 105.035 138.733 139.731 96.8051 145.326C54.8768 150.921 16.7735 125.549 11.8206 88.1526C6.86764 50.7567 36.8304 16.3054 78.8078 10.7107C120.785 5.11606 158.79 30.6846 163.792 67.8352Z" fill="url(#paint4_radial_1_2905)"/>
<path d="M96.4968 144.061C137.889 138.504 167.456 104.252 162.538 67.557C157.619 30.8617 120.077 5.61872 78.6851 11.1752C37.2931 16.7317 7.72556 50.9835 12.6441 87.6788C17.5627 124.374 55.1048 149.617 96.4968 144.061Z" fill="url(#paint5_radial_1_2905)"/>
<path d="M96.1978 142.812C137.048 137.292 166.201 103.443 161.312 67.2089C156.423 30.9746 119.344 6.07575 78.4934 11.5958C37.6431 17.1159 8.49062 50.9646 13.3796 87.1989C18.2685 123.433 55.3475 148.332 96.1978 142.812Z" fill="url(#paint6_radial_1_2905)"/>
<path d="M159.918 66.6573C164.822 102.385 136.134 135.805 95.8238 141.302C55.5138 146.798 19.0778 122.506 14.1739 86.7785C9.27004 51.0512 38.0069 17.5813 78.2679 12.0848C118.529 6.58833 155.014 31.0772 159.918 66.6573Z" fill="url(#paint7_radial_1_2905)"/>
<path d="M158.837 66.6574C163.74 101.894 135.445 134.922 95.7234 140.271C56.0018 145.621 19.811 121.622 14.9562 86.2878C10.1013 50.9531 38.3968 18.0722 78.1184 12.6738C117.84 7.27547 153.982 31.2245 158.837 66.6574Z" fill="url(#paint8_radial_1_2905)"/>
<path d="M95.3864 138.977C134.558 133.572 162.429 101.004 157.639 66.2331C152.849 31.4624 117.211 7.65661 78.0393 13.0613C38.8679 18.466 10.9966 51.0346 15.7869 85.8052C20.5772 120.576 56.2151 144.382 95.3864 138.977Z" fill="url(#paint9_radial_1_2905)"/>
<path d="M156.386 65.8232C161.29 100.176 133.779 132.272 95.1855 137.67C56.5918 143.069 21.627 119.709 16.7231 85.4045C11.8192 51.1004 39.281 18.9556 77.9237 13.5082C116.566 8.06074 151.58 31.5191 156.386 65.8232Z" fill="url(#paint10_radial_1_2905)"/>
<path d="M155.014 65.4795C159.917 99.2928 132.799 131.045 94.7446 136.394C56.6904 141.744 22.1179 118.727 17.3611 84.9626C12.6043 51.1984 39.5267 19.3971 77.581 13.9988C115.635 8.60042 150.355 31.6661 155.014 65.4795Z" fill="url(#paint11_radial_1_2905)"/>
<path d="M153.934 65.1361C158.838 98.4587 132.161 129.769 94.6463 135.118C57.1314 140.468 22.9022 117.795 18.1454 84.472C13.3886 51.1494 39.9187 19.839 77.4336 14.4897C114.948 9.1404 149.178 31.8135 153.934 65.1361Z" fill="url(#paint12_radial_1_2905)"/>
<path d="M94.2665 133.888C131.217 128.638 157.394 97.7559 152.735 64.91C148.075 32.0642 114.344 9.69304 77.3932 14.9427C40.4426 20.1923 14.2655 51.0748 18.925 83.9207C23.5844 116.767 57.316 139.138 94.2665 133.888Z" fill="url(#paint13_radial_1_2905)"/>
<path d="M151.48 64.449C156.384 96.7901 130.492 127.315 94.1046 132.566C57.7177 137.818 24.4202 115.733 19.7125 83.5396C15.0047 51.3458 40.7011 20.6733 77.0881 15.4221C113.475 10.171 146.772 32.3043 151.48 64.449Z" fill="url(#paint14_radial_1_2905)"/>
<path d="M93.6954 131.381C129.536 126.212 154.867 96.1645 150.274 64.2674C145.681 32.3704 112.903 10.7026 77.0628 15.8712C41.2224 21.0398 15.8913 51.0874 20.4843 82.9845C25.0773 114.882 57.855 136.549 93.6954 131.381Z" fill="url(#paint15_radial_1_2905)"/>
<path d="M93.4035 130.075C128.675 124.944 153.57 95.3235 149.008 63.9149C144.446 32.5062 112.155 11.2036 76.8838 16.3341C41.6125 21.4647 16.7176 51.0855 21.2794 82.4941C25.8412 113.903 58.1322 135.205 93.4035 130.075Z" fill="url(#paint16_radial_1_2905)"/>
<path d="M147.803 63.4184C152.413 94.3363 128.188 123.586 93.3211 128.739C58.4544 133.892 26.6771 113.083 22.0674 82.1655C17.4578 51.2476 41.8302 21.9983 76.5498 16.8453C111.269 11.6923 143.145 32.3043 147.803 63.4184Z" fill="url(#paint17_radial_1_2905)"/>
<path d="M146.527 63.0747C151.137 93.5018 127.206 122.359 93.0259 127.462C58.8457 132.566 27.5098 112.151 22.8511 81.7236C18.1924 51.2965 42.2215 22.4889 76.5488 17.2868C110.876 12.0848 141.967 32.6476 146.527 63.0747Z" fill="url(#paint18_radial_1_2905)"/>
<path d="M92.5927 126.296C126.211 121.28 149.847 92.9388 145.386 62.9947C140.925 33.0507 110.056 12.8425 76.4375 17.8585C42.8193 22.8746 19.1829 51.2154 23.644 81.1595C28.1051 111.104 58.9745 131.312 92.5927 126.296Z" fill="url(#paint19_radial_1_2905)"/>
<path d="M144.076 62.3878C148.636 91.8334 125.539 119.856 92.4866 124.911C59.4343 129.965 28.7359 110.188 24.4205 80.7422C20.105 51.2967 43.0062 23.3234 76.0585 18.2685C109.111 13.2137 139.564 32.9422 144.076 62.3878Z" fill="url(#paint20_radial_1_2905)"/>
<path d="M142.851 62.0443C147.363 91.0482 124.707 118.629 92.2431 123.635C59.7793 128.64 29.7674 109.304 25.2559 80.3006C20.7443 51.2967 43.4003 23.765 75.8641 18.7102C108.328 13.6554 138.34 33.0895 142.851 62.0443Z" fill="url(#paint21_radial_1_2905)"/>
<path d="M141.624 61.7497C146.135 90.2629 123.872 117.402 91.9474 122.408C60.023 127.413 30.5015 108.372 26.039 79.8588C21.5764 51.3456 43.7911 24.2066 75.7155 19.2009C107.64 14.1951 137.161 33.2366 141.624 61.7497Z" fill="url(#paint22_radial_1_2905)"/>
<path d="M140.302 61.3573C144.765 89.3797 122.942 116.126 91.6065 121.083C60.2706 126.039 31.2886 107.391 26.826 79.4172C22.3635 51.4439 44.1368 24.6484 75.5218 19.6918C106.907 14.7351 135.938 33.384 140.302 61.3573Z" fill="url(#paint23_radial_1_2905)"/>
<path d="M139.172 61.0137C143.585 88.5453 122.204 114.997 91.4078 119.905C60.6113 124.812 32.0216 106.458 27.51 78.9264C22.9984 51.3948 44.4284 24.9429 75.2739 20.0353C106.119 15.1277 134.709 33.5312 139.172 61.0137Z" fill="url(#paint24_radial_1_2905)"/>
<path d="M90.9262 118.628C121.208 113.834 142.288 88.0064 138.009 60.941C133.73 33.8755 105.714 15.8213 75.4318 20.6156C45.1499 25.41 24.0701 51.2375 28.3488 78.3029C32.6275 105.368 60.6443 123.423 90.9262 118.628Z" fill="url(#paint25_radial_1_2905)"/>
<path d="M136.722 60.3267C141.086 86.9259 120.588 112.396 90.8704 117.255C61.1528 122.113 33.5439 104.593 29.1794 77.994C24.8149 51.3949 45.3133 25.9735 75.0309 21.115C104.749 16.2565 132.308 33.7766 136.722 60.3267Z" fill="url(#paint26_radial_1_2905)"/>
<path d="M135.396 60.032C139.761 86.0914 119.655 111.169 90.5256 115.979C61.3964 120.788 34.3269 103.612 29.9625 77.5522C25.598 51.4928 45.704 26.415 74.8331 21.5565C103.962 16.698 131.13 33.9236 135.396 60.032Z" fill="url(#paint27_radial_1_2905)"/>
<path d="M134.268 59.6887C138.584 85.2573 118.919 109.893 90.1331 114.703C61.3472 119.512 34.8662 102.679 30.5508 77.1107C26.2354 51.5421 45.9 26.8569 74.6859 22.0474C103.472 17.238 129.904 34.0711 134.268 59.6887Z" fill="url(#paint28_radial_1_2905)"/>
<path d="M133.044 59.345C137.311 84.4228 118.333 108.421 90.0863 113.329C61.8398 118.236 35.8492 101.747 31.5337 76.4725C27.2183 51.1984 46.4906 27.3965 74.4919 22.4889C102.493 17.5813 128.729 34.2181 133.044 59.345Z" fill="url(#paint29_radial_1_2905)"/>
<path d="M131.769 59.0015C136.085 83.5395 117.057 107.439 89.7917 112.151C62.526 116.862 36.6335 101.011 32.4161 76.1781C28.1988 51.3456 47.1278 27.7401 74.4425 22.9797C101.757 18.2194 127.503 34.3654 131.769 59.0015Z" fill="url(#paint30_radial_1_2905)"/>
<path d="M130.493 58.6581C134.76 82.8034 116.419 106.164 89.4967 110.875C62.5743 115.586 37.3192 99.8328 33.1019 75.6874C28.8845 51.542 47.127 28.1819 74.1475 23.4706C101.168 18.7593 126.325 34.5127 130.493 58.6581Z" fill="url(#paint31_radial_1_2905)"/>
<path d="M129.317 58.3144C133.534 81.969 115.635 104.937 89.2518 109.599C62.8689 114.261 38.1532 98.9002 33.9359 75.2456C29.7185 51.591 47.6178 28.6234 73.9517 23.9121C100.286 19.2008 125.099 34.6598 129.317 58.3144Z" fill="url(#paint32_radial_1_2905)"/>
<path d="M128.089 57.971C132.307 81.1348 114.8 103.71 88.8581 108.323C62.9164 112.936 38.7402 97.9679 34.5719 74.7549C30.4036 51.542 47.8615 29.0652 73.8031 24.403C99.7447 19.7408 123.921 34.8071 128.089 57.971Z" fill="url(#paint33_radial_1_2905)"/>
<path d="M88.4424 107.104C113.698 102.633 130.918 80.5968 126.904 57.8839C122.89 35.171 99.162 20.3824 73.9059 24.8528C48.6499 29.3231 31.4299 51.3595 35.444 74.0724C39.4581 96.7853 63.1863 111.574 88.4424 107.104Z" fill="url(#paint34_radial_1_2905)"/>
<path d="M125.589 57.2838C129.757 79.4661 113.084 101.452 88.4173 105.771C63.7507 110.09 40.3591 95.9556 36.2398 73.8714C32.1206 51.7873 48.7448 29.9485 73.4114 25.3353C98.078 20.7222 121.519 35.0524 125.589 57.2838Z" fill="url(#paint35_radial_1_2905)"/>
<path d="M124.414 56.8422C128.533 78.5828 112.301 99.8818 88.2228 104.397C64.1447 108.912 41.1945 95.1214 37.3204 73.3808C33.4463 51.6401 49.433 30.3411 73.5111 25.8262C97.5893 21.3112 120.294 35.1997 124.414 56.8422Z" fill="url(#paint36_radial_1_2905)"/>
<path d="M123.187 56.8422C127.258 78.0921 111.516 98.9494 87.9283 103.464C64.3406 107.979 41.9298 94.4344 37.8595 73.1845C33.7893 51.9346 49.5308 31.0282 73.1186 26.5623C96.7063 22.0964 119.117 35.3469 123.187 56.8422Z" fill="url(#paint37_radial_1_2905)"/>
<path d="M121.962 56.2532C126.032 77.0123 110.683 97.477 87.6344 101.943C64.5861 106.409 42.6656 93.2074 38.5954 72.4973C34.5252 51.7873 49.8744 31.2735 72.9227 26.8076C95.971 22.3417 117.891 35.494 121.962 56.2532Z" fill="url(#paint38_radial_1_2905)"/>
<path d="M87.1316 100.754C109.609 96.4469 124.68 76.4896 120.793 56.1783C116.907 35.8671 95.5351 22.8933 73.0579 27.2005C50.5807 31.5078 35.5099 51.4651 39.3962 71.7763C43.2826 92.0876 64.6545 105.061 87.1316 100.754Z" fill="url(#paint39_radial_1_2905)"/>
<path d="M119.508 55.5661C123.529 75.1965 109.014 94.8269 87.1426 99.391C65.2712 103.955 44.2334 91.1953 40.2122 71.5649C36.191 51.9345 50.7066 32.3041 72.578 27.691C94.4494 23.0778 115.487 35.7885 119.508 55.5661Z" fill="url(#paint40_radial_1_2905)"/>
<path d="M118.282 55.2228C122.254 74.5587 108.18 93.7474 86.848 98.1152C65.516 102.483 45.0178 90.4103 40.9966 71.0743C36.9754 51.7384 51.0986 32.5497 72.4306 28.1819C93.7625 23.8142 114.261 35.9359 118.282 55.2228Z" fill="url(#paint41_radial_1_2905)"/>
<path d="M117.055 54.8791C120.978 73.7243 107.247 92.5204 86.602 96.839C65.9566 101.158 45.7525 89.4286 41.7803 70.6325C37.8082 51.8364 51.5881 32.9912 72.2335 28.6725C92.879 24.3538 113.083 36.0339 117.055 54.8791Z" fill="url(#paint42_radial_1_2905)"/>
<path d="M115.78 54.5357C119.753 72.8901 106.512 91.2445 86.357 95.5632C66.202 99.8819 46.5864 88.4962 42.6632 70.1418C38.7401 51.7874 51.9316 33.433 72.0866 29.1143C92.2416 24.7956 111.857 36.1813 115.78 54.5357Z" fill="url(#paint43_radial_1_2905)"/>
<path d="M114.554 54.1922C118.477 72.0559 105.727 90.0177 86.0624 94.2873C66.3977 98.5569 47.2725 87.5639 43.3984 69.7493C39.5243 51.9347 52.2255 33.9238 71.8901 29.6542C91.5547 25.3846 110.876 36.3286 114.554 54.1922Z" fill="url(#paint44_radial_1_2905)"/>
<path d="M113.33 53.8486C117.204 71.2706 104.895 88.7907 85.7702 93.1094C66.645 97.4281 48.0593 86.7295 44.1852 69.3566C40.3111 51.9837 52.6199 34.4145 71.7451 30.0958C90.8703 25.7772 109.456 36.4757 113.33 53.8486Z" fill="url(#paint45_radial_1_2905)"/>
<path d="M112.105 53.505C115.979 70.4362 104.062 87.5146 85.5255 91.7352C66.9888 95.9557 48.7953 85.6497 44.9702 68.7676C41.1452 51.8855 53.0126 34.758 71.6474 30.5374C90.2823 26.3169 108.28 36.6228 112.105 53.505Z" fill="url(#paint46_radial_1_2905)"/>
<path d="M110.878 53.1616C114.704 69.6021 103.228 86.2879 85.2311 90.4593C67.2338 94.6308 49.5797 84.7175 45.9999 68.3261C42.42 51.9347 53.65 35.1998 71.6473 31.0283C89.6446 26.8569 107.053 36.7702 110.878 53.1616Z" fill="url(#paint47_radial_1_2905)"/>
<path d="M109.653 52.818C110.834 60.8793 108.954 69.0908 104.385 75.834C99.8157 82.5772 92.888 87.3628 84.9674 89.2474C77.0469 91.1321 68.7083 89.979 61.5952 86.0155C54.4821 82.0521 49.1107 75.5658 46.5397 67.8352C45.0125 59.7691 46.7327 51.4258 51.3255 44.6233C55.9183 37.8209 63.0114 33.1107 71.0592 31.519C88.6642 27.3966 105.975 36.9174 109.653 52.818Z" fill="url(#paint48_radial_1_2905)"/>
<path d="M108.424 52.5235C109.491 60.2882 107.636 68.1724 103.221 74.6457C98.8053 81.1189 92.1439 85.7194 84.5298 87.5541C76.9156 89.3887 68.8919 88.3266 62.0162 84.574C55.1406 80.8213 49.9035 74.6458 47.3216 67.2463C46.2551 59.4817 48.1096 51.5975 52.525 45.1242C56.9405 38.6509 63.6018 34.0504 71.216 32.2158C78.8301 30.3811 86.8539 31.4432 93.7295 35.1959C100.605 38.9486 105.842 45.124 108.424 52.5235Z" fill="url(#paint49_radial_1_2905)"/>
<path d="M107.2 52.18C108.125 59.5935 106.306 67.0896 102.085 73.2525C97.8653 79.4155 91.5363 83.8187 84.2936 85.6308C77.051 87.4428 69.396 86.5382 62.7743 83.0877C56.1526 79.6373 51.0225 73.8799 48.3528 66.9028C47.4275 59.4892 49.2468 51.9931 53.4669 45.8302C57.6871 39.6673 64.0161 35.264 71.2588 33.452C78.5014 31.64 86.1564 32.5446 92.7781 35.995C99.3998 39.4454 104.53 45.2028 107.2 52.18Z" fill="url(#paint50_radial_1_2905)"/>
<path d="M105.975 51.9346C107.926 59.5098 106.79 67.5502 102.817 74.2872C98.8441 81.0242 92.3597 85.9058 84.7902 87.8582C77.2208 89.8106 69.1863 88.6737 62.4544 84.6978C55.7225 80.7219 50.8446 74.2325 48.8937 66.6574C46.9428 59.0822 48.0788 51.0417 52.0517 44.3047C56.0246 37.5677 62.5091 32.6861 70.0785 30.7338C77.648 28.7814 85.6824 29.9182 92.4143 33.8941C99.1462 37.8701 104.024 44.3594 105.975 51.9346Z" fill="url(#paint51_radial_1_2905)"/>
<path d="M83.8609 84.1294C99.0565 80.1456 108.404 65.566 104.739 51.565C101.074 37.5639 85.784 29.4434 70.5884 33.4272C55.3927 37.4111 46.0454 51.9907 49.7105 65.9917C53.3756 79.9927 68.6653 88.1133 83.8609 84.1294Z" fill="url(#paint52_radial_1_2905)"/>
<path d="M103.522 51.1495C104.844 57.9873 103.531 65.0722 99.848 70.9816C96.1651 76.8909 90.3847 81.1871 83.6673 83.0075C76.95 84.8278 69.7932 84.0376 63.634 80.7955C57.4748 77.5534 52.7693 72.0994 50.4622 65.5287C49.141 58.6909 50.4537 51.606 54.1366 45.6967C57.8195 39.7874 63.6 35.4912 70.3173 33.6708C77.0346 31.8504 84.1914 32.6406 90.3506 35.8827C96.5098 39.1248 101.215 44.5788 103.522 51.1495Z" fill="url(#paint53_radial_1_2905)"/>
</g>
<path style="mix-blend-mode:multiply" opacity="0.4" d="M91.4577 190.722C141.968 190.722 182.915 149.744 182.915 99.1949C182.915 48.6461 141.968 7.66821 91.4577 7.66821C40.947 7.66821 0 48.6461 0 99.1949C0 149.744 40.947 190.722 91.4577 190.722Z" fill="url(#paint54_radial_1_2905)"/>
<defs>
<radialGradient id="paint0_radial_1_2905" cx="0" cy="0" r="1" gradientUnits="userSpaceOnUse" gradientTransform="translate(71.3517 43.4937) scale(151.972 152.086)">
<stop stop-color="#FFF58E"/>
<stop offset="0.1" stop-color="#FDEC82"/>
<stop offset="0.27" stop-color="#F9D462"/>
<stop offset="0.5" stop-color="#F3AD2E"/>
<stop offset="0.69" stop-color="#ED8A00"/>
<stop offset="0.76" stop-color="#EF8F06"/>
<stop offset="0.86" stop-color="#F49B16"/>
<stop offset="0.96" stop-color="#FCB031"/>
<stop offset="1" stop-color="#FFB93C"/>
</radialGradient>
<radialGradient id="paint1_radial_1_2905" cx="0" cy="0" r="1" gradientUnits="userSpaceOnUse" gradientTransform="translate(58.9954 37.8498) scale(159.082 159.202)">
<stop stop-color="#FBC978"/>
<stop offset="0.31" stop-color="#A98751"/>
<stop offset="0.79" stop-color="#302717"/>
<stop offset="1"/>
</radialGradient>
<radialGradient id="paint2_radial_1_2905" cx="0" cy="0" r="1" gradientUnits="userSpaceOnUse" gradientTransform="translate(61.2004 30.2431) scale(157.955 158.074)">
<stop stop-color="#FABB63"/>
<stop offset="0.83" stop-color="#793011"/>
<stop offset="1" stop-color="#5F1400"/>
</radialGradient>
<radialGradient id="paint3_radial_1_2905" cx="0" cy="0" r="1" gradientTransform="matrix(119.997 -0.628786 0.628307 120.087 71.0735 36.5809)" gradientUnits="userSpaceOnUse">
<stop/>
<stop offset="1"/>
</radialGradient>
<radialGradient id="paint4_radial_1_2905" cx="0" cy="0" r="1" gradientTransform="matrix(118.521 -1.22143 1.22051 118.61 71.0973 36.9477)" gradientUnits="userSpaceOnUse">
<stop/>
<stop offset="1"/>
</radialGradient>
<radialGradient id="paint5_radial_1_2905" cx="0" cy="0" r="1" gradientTransform="matrix(117.042 -1.79914 1.79778 117.131 71.1979 37.3062)" gradientUnits="userSpaceOnUse">
<stop/>
<stop offset="1"/>
</radialGradient>
<radialGradient id="paint6_radial_1_2905" cx="0" cy="0" r="1" gradientTransform="matrix(115.052 -2.71302 2.71098 115.139 69.9066 35.788)" gradientUnits="userSpaceOnUse">
<stop/>
<stop offset="1"/>
</radialGradient>
<radialGradient id="paint7_radial_1_2905" cx="0" cy="0" r="1" gradientTransform="matrix(114.027 -2.94828 2.94606 114.113 71.2506 37.8523)" gradientUnits="userSpaceOnUse">
<stop/>
<stop offset="1"/>
</radialGradient>
<radialGradient id="paint8_radial_1_2905" cx="0" cy="0" r="1" gradientTransform="matrix(112.54 -3.48035 3.47772 112.625 71.3461 38.1932)" gradientUnits="userSpaceOnUse">
<stop/>
<stop offset="1"/>
</radialGradient>
<radialGradient id="paint9_radial_1_2905" cx="0" cy="0" r="1" gradientTransform="matrix(111.049 -4.03621 4.03317 111.133 71.3995 38.4761)" gradientUnits="userSpaceOnUse">
<stop/>
<stop offset="1"/>
</radialGradient>
<radialGradient id="paint10_radial_1_2905" cx="0" cy="0" r="1" gradientTransform="matrix(109.508 -4.53574 4.53232 109.591 71.4232 38.8575)" gradientUnits="userSpaceOnUse">
<stop/>
<stop offset="1"/>
</radialGradient>
<radialGradient id="paint11_radial_1_2905" cx="0" cy="0" r="1" gradientTransform="matrix(107.05 -5.41063 5.40655 107.13 68.3504 35.9696)" gradientUnits="userSpaceOnUse">
<stop/>
<stop offset="1"/>
</radialGradient>
<radialGradient id="paint12_radial_1_2905" cx="0" cy="0" r="1" gradientTransform="matrix(105.404 -5.45431 5.4502 105.483 67.1372 37.7134)" gradientUnits="userSpaceOnUse">
<stop/>
<stop offset="1"/>
</radialGradient>
<radialGradient id="paint13_radial_1_2905" cx="0" cy="0" r="1" gradientTransform="matrix(103.92 -5.92365 5.91919 103.998 67.1609 37.9054)" gradientUnits="userSpaceOnUse">
<stop/>
<stop offset="1"/>
</radialGradient>
<radialGradient id="paint14_radial_1_2905" cx="0" cy="0" r="1" gradientTransform="matrix(102.386 -6.3567 6.3519 102.464 67.183 38.2242)" gradientUnits="userSpaceOnUse">
<stop stop-color="#030000"/>
<stop offset="1"/>
</radialGradient>
<radialGradient id="paint15_radial_1_2905" cx="0" cy="0" r="1" gradientTransform="matrix(101.21 -6.33702 6.33225 101.286 67.5476 41.2063)" gradientUnits="userSpaceOnUse">
<stop stop-color="#0C0000"/>
<stop offset="1"/>
</radialGradient>
<radialGradient id="paint16_radial_1_2905" cx="0" cy="0" r="1" gradientTransform="matrix(99.3121 -7.21133 7.20589 99.387 67.1913 38.7018)" gradientUnits="userSpaceOnUse">
<stop stop-color="#140800"/>
<stop offset="0.84" stop-color="#080200"/>
<stop offset="1" stop-color="#050000"/>
</radialGradient>
<radialGradient id="paint17_radial_1_2905" cx="0" cy="0" r="1" gradientTransform="matrix(97.7725 -7.61476 7.60902 97.8463 67.2031 38.9061)" gradientUnits="userSpaceOnUse">
<stop stop-color="#1C0F00"/>
<stop offset="0.84" stop-color="#110300"/>
<stop offset="1" stop-color="#0E0000"/>
</radialGradient>
<radialGradient id="paint18_radial_1_2905" cx="0" cy="0" r="1" gradientTransform="matrix(96.2315 -8.00225 7.99622 96.3041 67.1446 39.1916)" gradientUnits="userSpaceOnUse">
<stop stop-color="#231700"/>
<stop offset="0.6" stop-color="#1B0B00"/>
<stop offset="1" stop-color="#140000"/>
</radialGradient>
<radialGradient id="paint19_radial_1_2905" cx="0" cy="0" r="1" gradientTransform="matrix(94.6906 -8.35727 8.35097 94.762 67.167 39.4563)" gradientUnits="userSpaceOnUse">
<stop stop-color="#2B1D00"/>
<stop offset="0.5" stop-color="#251100"/>
<stop offset="1" stop-color="#1C0000"/>
</radialGradient>
<radialGradient id="paint20_radial_1_2905" cx="0" cy="0" r="1" gradientTransform="matrix(93.1456 -8.72943 8.72284 93.2158 67.1413 39.5936)" gradientUnits="userSpaceOnUse">
<stop stop-color="#332500"/>
<stop offset="0.41" stop-color="#2D1900"/>
<stop offset="1" stop-color="#220000"/>
</radialGradient>
<radialGradient id="paint21_radial_1_2905" cx="0" cy="0" r="1" gradientTransform="matrix(91.6009 -9.0691 9.06226 91.67 67.0797 39.8156)" gradientUnits="userSpaceOnUse">
<stop stop-color="#3A2B00"/>
<stop offset="0.36" stop-color="#351F00"/>
<stop offset="1" stop-color="#290000"/>
</radialGradient>
<radialGradient id="paint22_radial_1_2905" cx="0" cy="0" r="1" gradientTransform="matrix(90.5431 -9.15267 9.14577 90.6114 68.3223 42.8148)" gradientUnits="userSpaceOnUse">
<stop stop-color="#413305"/>
<stop offset="0.32" stop-color="#3D2704"/>
<stop offset="0.9" stop-color="#320701"/>
<stop offset="1" stop-color="#300100"/>
</radialGradient>
<radialGradient id="paint23_radial_1_2905" cx="0" cy="0" r="1" gradientTransform="matrix(88.4606 -9.69533 9.68802 88.5274 67.0027 40.2389)" gradientUnits="userSpaceOnUse">
<stop stop-color="#47390A"/>
<stop offset="0.32" stop-color="#432D08"/>
<stop offset="0.89" stop-color="#380D01"/>
<stop offset="1" stop-color="#360600"/>
</radialGradient>
<radialGradient id="paint24_radial_1_2905" cx="0" cy="0" r="1" gradientTransform="matrix(86.6009 -9.72784 9.72051 86.6662 64.5638 40.3429)" gradientUnits="userSpaceOnUse">
<stop stop-color="#4F400F"/>
<stop offset="0.31" stop-color="#4B340C"/>
<stop offset="0.88" stop-color="#401402"/>
<stop offset="1" stop-color="#3D0C00"/>
</radialGradient>
<radialGradient id="paint25_radial_1_2905" cx="0" cy="0" r="1" gradientTransform="matrix(85.3676 -10.2476 10.2399 85.432 66.9029 40.6827)" gradientUnits="userSpaceOnUse">
<stop stop-color="#564614"/>
<stop offset="0.31" stop-color="#523A0F"/>
<stop offset="0.86" stop-color="#461A03"/>
<stop offset="1" stop-color="#431100"/>
</radialGradient>
<radialGradient id="paint26_radial_1_2905" cx="0" cy="0" r="1" gradientTransform="matrix(83.7695 -10.5162 10.5083 83.8327 66.8224 40.7943)" gradientUnits="userSpaceOnUse">
<stop stop-color="#5D4D19"/>
<stop offset="0.3" stop-color="#584114"/>
<stop offset="0.84" stop-color="#4C2105"/>
<stop offset="1" stop-color="#481600"/>
</radialGradient>
<radialGradient id="paint27_radial_1_2905" cx="0" cy="0" r="1" gradientTransform="matrix(82.2229 -10.7454 10.7373 82.2849 66.7615 41.0615)" gradientUnits="userSpaceOnUse">
<stop stop-color="#64531D"/>
<stop offset="0.29" stop-color="#604717"/>
<stop offset="0.81" stop-color="#542707"/>
<stop offset="1" stop-color="#4F1A00"/>
</radialGradient>
<radialGradient id="paint28_radial_1_2905" cx="0" cy="0" r="1" gradientTransform="matrix(80.5455 -10.6927 10.6846 80.6063 64.9281 42.0641)" gradientUnits="userSpaceOnUse">
<stop stop-color="#6B5A20"/>
<stop offset="0.27" stop-color="#674E1A"/>
<stop offset="0.77" stop-color="#5C2E09"/>
<stop offset="1" stop-color="#561D00"/>
</radialGradient>
<radialGradient id="paint29_radial_1_2905" cx="0" cy="0" r="1" gradientTransform="matrix(79.0774 -11.1783 11.1699 79.1371 66.6221 41.3542)" gradientUnits="userSpaceOnUse">
<stop stop-color="#736025"/>
<stop offset="0.27" stop-color="#6F541E"/>
<stop offset="0.76" stop-color="#63340B"/>
<stop offset="1" stop-color="#5C2200"/>
</radialGradient>
<radialGradient id="paint30_radial_1_2905" cx="0" cy="0" r="1" gradientTransform="matrix(77.4808 -11.367 11.3585 77.5392 66.5823 41.4445)" gradientUnits="userSpaceOnUse">
<stop stop-color="#7A6729"/>
<stop offset="0.26" stop-color="#765B21"/>
<stop offset="0.73" stop-color="#6A3B0D"/>
<stop offset="1" stop-color="#632600"/>
</radialGradient>
<radialGradient id="paint31_radial_1_2905" cx="0" cy="0" r="1" gradientTransform="matrix(75.9323 -11.5466 11.5379 75.9896 66.4143 41.5809)" gradientUnits="userSpaceOnUse">
<stop stop-color="#806C2F"/>
<stop offset="0.26" stop-color="#7C6026"/>
<stop offset="0.73" stop-color="#70400F"/>
<stop offset="1" stop-color="#682B00"/>
</radialGradient>
<radialGradient id="paint32_radial_1_2905" cx="0" cy="0" r="1" gradientTransform="matrix(74.3362 -11.7027 11.6939 74.3922 66.3186 41.6854)" gradientUnits="userSpaceOnUse">
<stop stop-color="#877433"/>
<stop offset="0.25" stop-color="#83682A"/>
<stop offset="0.71" stop-color="#784812"/>
<stop offset="1" stop-color="#703000"/>
</radialGradient>
<radialGradient id="paint33_radial_1_2905" cx="0" cy="0" r="1" gradientTransform="matrix(72.7405 -11.8424 11.8335 72.7954 66.2642 41.795)" gradientUnits="userSpaceOnUse">
<stop stop-color="#8E7A37"/>
<stop offset="0.25" stop-color="#8A6E2D"/>
<stop offset="0.69" stop-color="#7F4E14"/>
<stop offset="1" stop-color="#763400"/>
</radialGradient>
<radialGradient id="paint34_radial_1_2905" cx="0" cy="0" r="1" gradientTransform="matrix(71.1675 -11.8561 11.8472 71.2212 65.5154 42.5302)" gradientUnits="userSpaceOnUse">
<stop stop-color="#96803C"/>
<stop offset="0.24" stop-color="#917432"/>
<stop offset="0.68" stop-color="#855417"/>
<stop offset="1" stop-color="#7B3900"/>
</radialGradient>
<radialGradient id="paint35_radial_1_2905" cx="0" cy="0" r="1" gradientTransform="matrix(69.599 -12.081 12.0719 69.6515 66.0248 41.8886)" gradientUnits="userSpaceOnUse">
<stop stop-color="#9C8641"/>
<stop offset="0.24" stop-color="#987A36"/>
<stop offset="0.67" stop-color="#8C5A1A"/>
<stop offset="1" stop-color="#823D00"/>
</radialGradient>
<radialGradient id="paint36_radial_1_2905" cx="0" cy="0" r="1" gradientTransform="matrix(68.0056 -12.1718 12.1626 68.0569 65.9303 41.9054)" gradientUnits="userSpaceOnUse">
<stop stop-color="#A38D46"/>
<stop offset="0.23" stop-color="#9F813B"/>
<stop offset="0.65" stop-color="#93611D"/>
<stop offset="1" stop-color="#874100"/>
</radialGradient>
<radialGradient id="paint37_radial_1_2905" cx="0" cy="0" r="1" gradientTransform="matrix(66.4131 -12.2463 12.237 66.4632 65.809 41.9267)" gradientUnits="userSpaceOnUse">
<stop stop-color="#AA934A"/>
<stop offset="0.23" stop-color="#A6873E"/>
<stop offset="0.64" stop-color="#9A6720"/>
<stop offset="1" stop-color="#8E4600"/>
</radialGradient>
<radialGradient id="paint38_radial_1_2905" cx="0" cy="0" r="1" gradientTransform="matrix(64.8716 -12.3021 12.2928 64.9206 65.6225 42.0289)" gradientUnits="userSpaceOnUse">
<stop stop-color="#B09A4F"/>
<stop offset="0.22" stop-color="#AC8E43"/>
<stop offset="0.62" stop-color="#A16E23"/>
<stop offset="1" stop-color="#944A00"/>
</radialGradient>
<radialGradient id="paint39_radial_1_2905" cx="0" cy="0" r="1" gradientTransform="matrix(63.2794 -12.3554 12.3461 63.3271 65.5707 41.9179)" gradientUnits="userSpaceOnUse">
<stop stop-color="#B89F53"/>
<stop offset="0.22" stop-color="#B49347"/>
<stop offset="0.61" stop-color="#A97427"/>
<stop offset="1" stop-color="#9B4F00"/>
</radialGradient>
<radialGradient id="paint40_radial_1_2905" cx="0" cy="0" r="1" gradientTransform="matrix(61.6479 -12.7205 12.7109 61.6944 68.1728 39.7013)" gradientUnits="userSpaceOnUse">
<stop stop-color="#BFA658"/>
<stop offset="0.21" stop-color="#BB9B4C"/>
<stop offset="0.58" stop-color="#AF7C2C"/>
<stop offset="1" stop-color="#A05300"/>
</radialGradient>
<radialGradient id="paint41_radial_1_2905" cx="0" cy="0" r="1" gradientTransform="matrix(60.1257 -12.4064 12.3971 60.1711 65.5847 41.8727)" gradientUnits="userSpaceOnUse">
<stop stop-color="#C5AB5C"/>
<stop offset="0.2" stop-color="#C1A050"/>
<stop offset="0.56" stop-color="#B68330"/>
<stop offset="1" stop-color="#A65800"/>
</radialGradient>
<radialGradient id="paint42_radial_1_2905" cx="0" cy="0" r="1" gradientTransform="matrix(58.6511 -12.7072 12.6977 58.6954 68.5615 40.8846)" gradientUnits="userSpaceOnUse">
<stop stop-color="#CCB360"/>
<stop offset="0.19" stop-color="#C8A854"/>
<stop offset="0.54" stop-color="#BD8B34"/>
<stop offset="1" stop-color="#AB5C00"/>
</radialGradient>
<radialGradient id="paint43_radial_1_2905" cx="0" cy="0" r="1" gradientTransform="matrix(57.129 -12.3775 12.3681 57.172 65.8665 42.9351)" gradientUnits="userSpaceOnUse">
<stop stop-color="#D2B864"/>
<stop offset="0.19" stop-color="#CEAD58"/>
<stop offset="0.52" stop-color="#C39138"/>
<stop offset="0.97" stop-color="#B16404"/>
<stop offset="1" stop-color="#B06000"/>
</radialGradient>
<radialGradient id="paint44_radial_1_2905" cx="0" cy="0" r="1" gradientTransform="matrix(55.4037 -12.3123 12.303 55.4455 64.7041 41.5224)" gradientUnits="userSpaceOnUse">
<stop stop-color="#DABF68"/>
<stop offset="0.18" stop-color="#D6B45C"/>
<stop offset="0.51" stop-color="#CC983C"/>
<stop offset="0.94" stop-color="#BB6B08"/>
<stop offset="1" stop-color="#B86400"/>
</radialGradient>
<radialGradient id="paint45_radial_1_2905" cx="0" cy="0" r="1" gradientTransform="matrix(54.4152 -12.3922 12.3828 54.4563 68.705 46.608)" gradientUnits="userSpaceOnUse">
<stop stop-color="#E0C46B"/>
<stop offset="0.18" stop-color="#DCBA5F"/>
<stop offset="0.49" stop-color="#D29E3F"/>
<stop offset="0.92" stop-color="#C1710B"/>
<stop offset="1" stop-color="#BD6800"/>
</radialGradient>
<radialGradient id="paint46_radial_1_2905" cx="0" cy="0" r="1" gradientTransform="matrix(52.8214 -12.3206 12.3114 52.8612 68.6197 46.4835)" gradientUnits="userSpaceOnUse">
<stop stop-color="#E7CA70"/>
<stop offset="0.17" stop-color="#E3C064"/>
<stop offset="0.48" stop-color="#D9A544"/>
<stop offset="0.88" stop-color="#C97910"/>
<stop offset="1" stop-color="#C46C00"/>
</radialGradient>
<radialGradient id="paint47_radial_1_2905" cx="0" cy="0" r="1" gradientTransform="matrix(51.2298 -12.2328 12.2236 51.2684 68.4325 46.373)" gradientUnits="userSpaceOnUse">
<stop stop-color="#EDD074"/>
<stop offset="0.16" stop-color="#E9C668"/>
<stop offset="0.46" stop-color="#DFAC48"/>
<stop offset="0.86" stop-color="#CF8114"/>
<stop offset="1" stop-color="#C97100"/>
</radialGradient>
<radialGradient id="paint48_radial_1_2905" cx="0" cy="0" r="1" gradientTransform="matrix(49.6904 -12.1315 12.1224 49.7278 68.1678 46.2969)" gradientUnits="userSpaceOnUse">
<stop stop-color="#F5D77A"/>
<stop offset="0.16" stop-color="#F1CD6E"/>
<stop offset="0.45" stop-color="#E8B44E"/>
<stop offset="0.83" stop-color="#D88B1A"/>
<stop offset="1" stop-color="#D07600"/>
</radialGradient>
<radialGradient id="paint49_radial_1_2905" cx="0" cy="0" r="1" gradientTransform="matrix(48.1036 -12.0116 12.0025 48.1399 68.0962 46.0586)" gradientUnits="userSpaceOnUse">
<stop stop-color="#FBDC7E"/>
<stop offset="0.15" stop-color="#F7D372"/>
<stop offset="0.43" stop-color="#EEBA52"/>
<stop offset="0.8" stop-color="#DF911E"/>
<stop offset="1" stop-color="#D67A00"/>
</radialGradient>
<radialGradient id="paint50_radial_1_2905" cx="0" cy="0" r="1" gradientTransform="matrix(46.5692 -11.8793 11.8703 46.6043 67.7211 45.9027)" gradientUnits="userSpaceOnUse">
<stop stop-color="#FFE382"/>
<stop offset="0.15" stop-color="#FCDA76"/>
<stop offset="0.42" stop-color="#F3C156"/>
<stop offset="0.79" stop-color="#E59822"/>
<stop offset="1" stop-color="#DC7E00"/>
</radialGradient>
<radialGradient id="paint51_radial_1_2905" cx="0" cy="0" r="1" gradientTransform="matrix(44.9878 -11.7273 11.7184 45.0217 67.6174 45.6456)" gradientUnits="userSpaceOnUse">
<stop stop-color="#FFE886"/>
<stop offset="0.15" stop-color="#FCDF7A"/>
<stop offset="0.41" stop-color="#F5C65A"/>
<stop offset="0.77" stop-color="#EA9F26"/>
<stop offset="1" stop-color="#E28200"/>
</radialGradient>
<radialGradient id="paint52_radial_1_2905" cx="0" cy="0" r="1" gradientTransform="matrix(43.5008 -11.4046 11.396 43.5336 65.1371 46.8799)" gradientUnits="userSpaceOnUse">
<stop stop-color="#FFEF8A"/>
<stop offset="0.14" stop-color="#FDE67E"/>
<stop offset="0.4" stop-color="#F8CD5E"/>
<stop offset="0.75" stop-color="#EFA62A"/>
<stop offset="1" stop-color="#E88600"/>
</radialGradient>
<radialGradient id="paint53_radial_1_2905" cx="0" cy="0" r="1" gradientTransform="matrix(41.8832 -11.3801 11.3716 41.9148 67.0935 44.9804)" gradientUnits="userSpaceOnUse">
<stop stop-color="#FFF58E"/>
<stop offset="0.14" stop-color="#FDEC82"/>
<stop offset="0.39" stop-color="#F9D462"/>
<stop offset="0.73" stop-color="#F3AD2E"/>
<stop offset="1" stop-color="#ED8A00"/>
</radialGradient>
<radialGradient id="paint54_radial_1_2905" cx="0" cy="0" r="1" gradientUnits="userSpaceOnUse" gradientTransform="translate(68.3113 32.9914) scale(162.858 162.981)">
<stop offset="0.3" stop-color="white"/>
<stop offset="0.35" stop-color="#FEFAF3"/>
<stop offset="0.43" stop-color="#FCEBD4"/>
<stop offset="0.53" stop-color="#F8D4A0"/>
<stop offset="0.66" stop-color="#F3B35A"/>
<stop offset="0.81" stop-color="#ED8A00"/>
<stop offset="0.84" stop-color="#EE8D05"/>
<stop offset="0.88" stop-color="#F09414"/>
<stop offset="0.92" stop-color="#F4A02C"/>
<stop offset="0.96" stop-color="#F9B04D"/>
<stop offset="1" stop-color="#FEC270"/>
</radialGradient>
</defs>
</svg>
